<svg width="55" height="37" viewBox="0 0 55 37" fill="none" xmlns="http://www.w3.org/2000/svg">
<path d="M54.756 17.621L54.9084 17.8757C54.9684 17.9758 55 18.0903 55 18.207C55 18.5144 54.778 18.7802 54.4765 18.8406C54.4343 18.8491 54.3907 18.8535 54.3476 18.8535H54.1589C53.945 18.8535 53.7399 18.7684 53.5888 18.6169C53.5119 18.5398 53.4514 18.4478 53.411 18.3466L53.3031 18.0762C53.2592 17.9661 53.2066 17.8597 53.1458 17.7581L52.8846 17.3217L52.6496 16.8503L52.4869 16.524C52.4389 16.4279 52.4056 16.3251 52.388 16.2191C52.3309 15.8757 52.4466 15.522 52.6924 15.2755C52.7416 15.2262 52.7865 15.1714 52.8251 15.1134C52.9405 14.9398 53.0021 14.7359 53.0021 14.5274V14.258V12.9618L53.1197 11.6656V10.7229V10.6328C53.1197 10.2429 52.9426 9.87393 52.6384 9.62991L52.5573 9.5648C52.5405 9.55136 52.5224 9.53973 52.5032 9.5301L52.4833 9.52015C52.2898 9.42316 52.062 9.56383 52.062 9.78026V10.1338L51.8269 12.4904L51.7094 15.0828V16.0255V18.0287L51.8269 19.914L51.8365 19.9714C51.9083 20.4038 52.0139 20.83 52.1522 21.2459L52.2686 21.5961C52.3657 21.888 52.4912 22.1696 52.6436 22.4369L52.6756 22.4931C52.8146 22.737 52.9785 22.9657 53.1647 23.1758L53.6101 23.6782C53.7511 23.8373 53.8517 24.0281 53.9031 24.2345C53.9291 24.3389 53.9423 24.4461 53.9423 24.5538V24.6031C53.9423 24.6977 53.9345 24.7921 53.919 24.8854L53.8248 25.4522C53.747 25.9201 53.7505 26.3978 53.8351 26.8644L53.9423 27.4554L54.0041 27.7241C54.1973 28.5635 54.2949 29.4221 54.2949 30.2834V33.3471V34.9504C54.2949 35.0511 54.238 35.1431 54.148 35.1883C54.0911 35.2168 54.0259 35.224 53.9641 35.2085L53.8609 35.1826C53.7079 35.1443 53.5513 35.2303 53.5016 35.3799C53.4824 35.4374 53.4811 35.4993 53.4977 35.5576L53.6461 36.0783C53.6859 36.2182 53.6827 36.3668 53.6369 36.5048C53.5386 36.8005 53.262 37 52.9504 37H50.447C50.427 37 50.4074 36.9953 50.3896 36.9864C50.2994 36.9412 50.2945 36.8143 50.381 36.7622L50.7319 36.5511C50.7567 36.5362 50.7796 36.5183 50.8 36.4978L50.9527 36.3447C51.1421 36.1549 51.2935 35.9307 51.3988 35.6841L51.4387 35.5909C51.5403 35.3532 51.6063 35.1019 51.6348 34.8451L51.7094 34.172L51.8269 32.9936L51.9444 29.9299V29.6216C51.9444 29.2025 51.8647 28.7873 51.7094 28.3981L50.3546 26.0208C50.3178 25.9563 50.29 25.887 50.2721 25.8149L50.2064 25.5514C50.1907 25.4885 50.1482 25.4355 50.0902 25.4064C50.0045 25.3634 49.9008 25.3803 49.8331 25.4482L49.7971 25.4843C49.7423 25.5392 49.7115 25.6136 49.7115 25.6912V25.9505C49.7115 26.011 49.7056 26.0713 49.6938 26.1305L49.594 26.6306L49.4765 27.2197L48.9773 29.0216C48.9185 29.2339 48.8394 29.44 48.7411 29.6371C48.6052 29.9097 48.5061 30.1991 48.4466 30.4978L48.4188 30.6369L48.1373 31.7658C48.09 31.9556 48.0264 32.1408 47.9472 32.3196L47.7439 32.7781C47.647 32.9968 47.6065 33.2364 47.6264 33.4748L47.6727 34.0319C47.697 34.3253 47.5272 34.6003 47.254 34.7099L47.1886 34.7361C47.1473 34.7526 47.1099 34.7774 47.0785 34.8088C47.0329 34.8546 47.0018 34.9128 46.9892 34.9762L46.927 35.2876C46.9031 35.4074 46.8634 35.5236 46.8088 35.633L46.7974 35.6559C46.7041 35.8431 46.5743 36.0097 46.4157 36.146L46.3517 36.201C46.0158 36.4897 45.5931 36.658 45.1506 36.6791L43.6 36.7531C43.4476 36.7604 43.2969 36.7186 43.1701 36.6338L43.1288 36.6062C43.0528 36.5554 42.9914 36.4856 42.9505 36.4038L42.9459 36.3944C42.9126 36.3277 42.8953 36.2542 42.8953 36.1797C42.8953 36.0285 42.9664 35.886 43.0873 35.7951L43.3654 35.586L43.7179 35.3503C44.1051 35.0398 44.4202 34.649 44.6417 34.2049L45.4808 32.5223C45.9455 31.6681 46.2217 30.7242 46.2907 29.7543L46.3034 29.5764L46.3875 28.9023C46.4096 28.7244 46.4031 28.5441 46.368 28.3684C46.3254 28.1546 46.2413 27.9512 46.1206 27.7697L45.8333 27.3376L45.4211 26.7865C45.2304 26.5315 44.9664 26.3408 44.6644 26.2399C44.5046 26.1865 44.3371 26.1592 44.1686 26.1592H44.0726C43.915 26.1592 43.7579 26.1765 43.604 26.2108L43.3066 26.2771C42.9551 26.3554 42.5961 26.3949 42.236 26.3949H39.6047L37.6068 26.5127H34.3162H33.0235L31.0256 26.2771L29.9679 26.0414L28.4402 25.6879L26.9124 25.4522L25.6203 25.376C25.2374 25.3534 24.9145 25.6579 24.9145 26.0414L25.0321 27.5732V28.2803V28.8694L24.8402 30.5043C24.8115 30.7488 24.8146 30.996 24.8493 31.2398L24.8553 31.2815C24.8945 31.557 24.9778 31.8244 25.102 32.0734C25.2115 32.293 25.2893 32.527 25.3331 32.7684L25.5021 33.7006L25.6952 34.7655C25.7171 34.886 25.6245 34.9968 25.5021 34.9968H25.2892C25.2745 34.9968 25.2599 34.995 25.2457 34.9914L25.1885 34.9771C25.0501 34.9424 24.9415 35.0963 25.0205 35.2151C25.0282 35.2266 25.0343 35.2391 25.0386 35.2523L25.0852 35.3924C25.1278 35.5206 25.1496 35.6549 25.1496 35.79V36.293V36.3842C25.1496 36.6172 25.0181 36.8303 24.8098 36.9347C24.7241 36.9776 24.6296 37 24.5338 37H21.6522C21.5312 37 21.4524 36.8727 21.5064 36.7643L21.6883 36.3995C21.8005 36.1745 21.9636 35.9786 22.1646 35.8275C22.2738 35.7454 22.3722 35.6498 22.4574 35.543L22.7991 35.1147C22.9524 34.8841 23.0342 34.6135 23.0342 34.3366V34.2898V31.5796C22.9563 30.9549 22.7827 30.3459 22.5194 29.774L22.2115 29.1051L21.7415 27.6911L21.5341 26.9635C21.5177 26.9059 21.4651 26.8662 21.4053 26.8662C21.3313 26.8662 21.2714 26.9262 21.2714 27.0002V27.2197L21.1999 27.7928C21.1693 28.0386 21.1145 28.2808 21.0363 28.5159C20.8802 29.0638 20.7902 29.6285 20.7684 30.1978L20.6838 32.4045V34.0719C20.6838 34.1385 20.6783 34.205 20.6674 34.2707L20.5953 34.7043C20.577 34.8141 20.5074 34.9085 20.4079 34.9583L20.2417 35.0417C20.1614 35.082 20.0636 35.0494 20.0235 34.9689C19.996 34.9138 19.9397 34.879 19.8781 34.879H19.8748C19.7977 34.879 19.7305 34.9315 19.7119 35.0062L19.6261 35.3503L19.5085 35.8217L19.4966 35.8576C19.429 36.0609 19.2834 36.2291 19.0919 36.3251C18.9795 36.3815 18.8555 36.4108 18.7297 36.4108H17.5107H16.7372C16.6305 36.4108 16.5281 36.3684 16.4528 36.2928C16.3777 36.2175 16.3355 36.1154 16.3355 36.0091V35.9984C16.3355 35.8852 16.3804 35.7766 16.4603 35.6965L16.9231 35.2325L17.2041 34.9507C17.4081 34.7462 17.5938 34.5242 17.7592 34.2873C18.1381 33.7446 18.4046 33.1315 18.5429 32.4842L18.6859 31.8153L18.8775 30.6626C18.9062 30.4902 18.8991 30.3138 18.8568 30.1442C18.8215 30.0024 18.7621 29.8677 18.6811 29.746L18.6709 29.7306C18.6028 29.6283 18.5487 29.5174 18.51 29.4008L18.4621 29.2566C18.3768 29.0002 18.3333 28.7317 18.3333 28.4614V28.2803V27.2197V26.0515C18.3333 25.703 18.0874 25.4029 17.7457 25.3344L17.3269 25.2744C17.0585 25.236 16.795 25.1684 16.5412 25.073L16.36 25.0048C16.1102 24.9109 15.8768 24.778 15.6686 24.611C15.4873 24.4655 15.3269 24.2957 15.192 24.1063L15.0715 23.9372C14.8962 23.6911 14.7492 23.426 14.6332 23.147L14.2201 22.1529L13.6325 20.7389L13.1624 19.7962L12.7356 19.1543C12.5541 18.8813 12.4573 18.5608 12.4573 18.233C12.4573 18.0973 12.4407 17.9621 12.4078 17.8304L12.4058 17.8224C12.362 17.6468 12.291 17.4791 12.1952 17.3255L11.7521 16.6147L11.3996 16.1433L10.812 15.4363L9.98932 14.258L9.59319 13.7813C9.47188 13.6354 9.29192 13.551 9.10213 13.551C9.06687 13.551 9.03167 13.5539 8.99688 13.5597L8.34402 13.6688C7.87979 13.7464 7.40409 13.7194 6.95163 13.5897L6.81624 13.551L6.29257 13.3541C6.02037 13.2517 5.72491 13.2278 5.43979 13.2849C5.33915 13.3051 5.23676 13.3153 5.13412 13.3153H4.34829H4.27967C4.17313 13.3153 4.07096 13.2729 3.99573 13.1975C3.92049 13.122 3.81833 13.0796 3.71178 13.0796H3.65367C3.56948 13.0796 3.48645 13.0993 3.41119 13.137L3.2906 13.1975L3.15672 13.2646C3.08936 13.2983 3.01969 13.3273 2.94823 13.3512C2.7858 13.4054 2.61568 13.4331 2.44442 13.4331H2.00216C1.84893 13.4331 1.70201 13.3721 1.59381 13.2637L1.57623 13.246C1.54414 13.2139 1.51744 13.1767 1.49716 13.1361C1.44201 13.0254 1.34125 12.9445 1.22136 12.9144L1.11695 12.8883C1.00128 12.8593 0.895683 12.7993 0.811474 12.7149L0.705128 12.6083L0.245602 12.0554C0.160961 11.9535 0.0960808 11.8368 0.054306 11.7111C0.0183372 11.6029 0 11.4896 0 11.3756V10.8408V10.5918C0 10.4494 0.0564651 10.3128 0.157009 10.212C0.208492 10.1604 0.269936 10.1198 0.337605 10.0926L0.822651 9.89809L0.942219 9.86812C1.17355 9.81013 1.39093 9.70641 1.58155 9.56307C1.70191 9.47255 1.81035 9.36718 1.90428 9.24946L3.17308 7.65924L3.74575 6.98934C3.83322 6.88701 3.90004 6.7687 3.94251 6.64096C3.97776 6.53494 3.99573 6.42394 3.99573 6.31221V6.06016C3.99573 5.94814 4.00676 5.83639 4.02868 5.72654C4.08418 5.44828 4.20823 5.18826 4.38959 4.97005L4.70086 4.59554L5.23461 4.06037C5.34843 3.94624 5.47582 3.84652 5.61394 3.76343L5.86151 3.61449C5.94848 3.56217 6.02274 3.49119 6.07893 3.40668C6.17513 3.262 6.21279 3.0862 6.1843 2.91481L6.1362 2.62548C6.11957 2.5254 6.08809 2.42836 6.04282 2.33757C5.93515 2.12166 5.75443 1.95091 5.53276 1.85566L5.37921 1.78968C5.16506 1.69766 4.97575 1.55623 4.82677 1.37698L4.5676 1.06514C4.5001 0.983927 4.44473 0.893353 4.40322 0.796247L4.15376 0.21262C4.12928 0.155348 4.14206 0.088948 4.18604 0.0448482C4.21468 0.0161365 4.25356 0 4.29411 0H4.5023C4.63176 0 4.7583 0.0383989 4.86592 0.110338L4.9262 0.150628C5.0104 0.206912 5.08442 0.277106 5.14508 0.358208L5.22423 0.464019C5.34441 0.624687 5.49265 0.762302 5.66179 0.870226L6.5636 1.44564C6.65334 1.50289 6.74977 1.54891 6.85073 1.58265L6.93982 1.61243C7.01364 1.6371 7.09097 1.64968 7.1688 1.64968C7.24664 1.64968 7.32396 1.6371 7.39779 1.61243L7.63889 1.53185L7.96026 1.42444C7.98092 1.41753 8.00256 1.41401 8.02434 1.41401C8.13599 1.41401 8.22649 1.32351 8.22649 1.21186V1.10976C8.22649 1.07714 8.22125 1.04473 8.21096 1.01378L8.10897 0.707006L8.02472 0.453551C8.00341 0.389479 8.00837 0.319576 8.0385 0.259152L8.04619 0.243736C8.08466 0.166589 8.16346 0.117834 8.24966 0.117834C8.31007 0.117834 8.36799 0.141872 8.41065 0.184642L8.46154 0.235669C8.61678 0.391326 8.75789 0.563542 8.87961 0.74661L8.91889 0.805687C9.08309 1.05265 9.28441 1.27279 9.51575 1.45836L9.62732 1.54785C9.71172 1.61555 9.80304 1.67413 9.89976 1.72262L10.1099 1.82797C10.1852 1.8657 10.2682 1.88535 10.3524 1.88535H10.4551C10.5331 1.88535 10.6079 1.91638 10.6629 1.9716C10.752 2.06087 10.7741 2.19704 10.7178 2.30987L10.71 2.32553C10.6997 2.34624 10.6916 2.36802 10.686 2.39048L10.59 2.77566C10.5813 2.81044 10.5769 2.84615 10.5769 2.88199C10.5769 2.99835 10.6231 3.10996 10.7052 3.19235L11.047 3.53503C11.5885 4.07793 12.2454 4.49173 12.9689 4.74563L13.6176 4.97327C14.0186 5.11402 14.4301 5.223 14.8483 5.29923L15.4238 5.40415C16.3431 5.57174 17.2756 5.65605 18.2101 5.65605H19.0385L22.9167 6.00955L25.2671 6.24522L28.9103 6.71656H31.4957L34.5513 6.36306L37.4893 6.12739L39.2521 5.77389C40.7333 5.38308 42.2623 5.2042 43.7936 5.24258L46.1859 5.30255H46.391C47.9654 5.30255 49.5274 5.58182 51.0043 6.12739L51.5202 6.32136C51.8018 6.42726 52.0683 6.56962 52.313 6.74482C52.6137 6.96024 52.8778 7.22275 53.0951 7.52223L53.4801 8.05308C53.6313 8.2615 53.765 8.48204 53.8799 8.71246L53.9004 8.75351C54.0065 8.96628 54.0941 9.18777 54.1622 9.41554C54.3272 9.96687 54.3756 10.5465 54.3044 11.1176L54.2949 11.1943V11.3971C54.2949 11.9661 54.2158 12.5324 54.0598 13.0796C53.9817 13.4714 53.9423 13.87 53.9423 14.2696V14.7293C53.9423 14.9618 53.8883 15.1911 53.7846 15.3992L53.7073 15.5541L53.5549 15.7834C53.501 15.8644 53.4722 15.9596 53.4722 16.0569C53.4722 16.1877 53.5241 16.3132 53.6165 16.4058L53.7073 16.4968L54.1774 16.9682L54.4981 17.2897C54.5973 17.3892 54.6839 17.5004 54.756 17.621Z" fill="#B1B1B1"/>
</svg>
