<svg width="74" height="50" viewBox="0 0 74 50" fill="none" xmlns="http://www.w3.org/2000/svg">
<path d="M73.672 23.8126L73.8769 24.1565C73.9575 24.2917 74 24.4461 74 24.6035C74 25.0194 73.7033 25.3782 73.2957 25.4603C73.2386 25.4718 73.1801 25.4777 73.1218 25.4777H72.8701C72.5813 25.4777 72.3043 25.3624 72.1008 25.1575C71.9976 25.0536 71.9166 24.9298 71.8625 24.7938L71.7169 24.4271C71.6579 24.2785 71.5871 24.1348 71.5052 23.9974L71.1538 23.4076L70.8376 22.7707L70.6187 22.3299C70.5542 22.1999 70.5093 22.0609 70.4856 21.9177C70.4088 21.4534 70.5636 20.9766 70.8952 20.6427C70.9616 20.5758 71.0219 20.5018 71.0739 20.4233C71.2292 20.1888 71.312 19.9137 71.312 19.6325V19.2675V17.5159L71.4701 15.7643V14.4904V14.3658C71.4701 13.8405 71.2322 13.3434 70.8231 13.0138L70.7134 12.9254C70.6908 12.9072 70.6665 12.8915 70.6406 12.8785L70.6159 12.8661C70.3549 12.7347 70.047 12.9244 70.047 13.2166V13.6943L69.7308 16.879L69.5726 20.3822V21.6561V24.3631L69.7308 26.9108L69.7437 26.9891C69.8404 27.573 69.9823 28.1484 70.1683 28.7103L70.3253 29.1848C70.4557 29.5787 70.6245 29.9588 70.8293 30.3197L70.8726 30.3961C71.0596 30.7256 71.2802 31.0349 71.5309 31.3189L72.1292 31.9968C72.3195 32.2123 72.455 32.4705 72.5242 32.7495C72.5592 32.8905 72.5769 33.0352 72.5769 33.1805V33.2475C72.5769 33.3753 72.5664 33.5029 72.5456 33.6289L72.4188 34.3949C72.3142 35.0272 72.3189 35.6727 72.4327 36.3033L72.5769 37.1019L72.66 37.4646C72.92 38.5992 73.0513 39.7596 73.0513 40.9236V45.0637V47.2316C73.0513 47.3669 72.975 47.4906 72.8542 47.5515C72.7773 47.5902 72.6891 47.5999 72.6057 47.5789L72.4693 47.5446C72.2626 47.4925 72.0507 47.6089 71.9837 47.8113C71.9581 47.8886 71.9563 47.9718 71.9786 48.0502L72.1787 48.7557C72.2321 48.944 72.2278 49.1439 72.1663 49.3297C72.0339 49.7298 71.6598 50 71.2383 50H67.8744C67.8474 50 67.8208 49.9937 67.7966 49.9815C67.6751 49.9203 67.6685 49.7493 67.785 49.6789L68.2572 49.3935C68.2907 49.3733 68.3216 49.349 68.3492 49.3212L68.555 49.114C68.8094 48.8578 69.0128 48.5554 69.1542 48.2231L69.2087 48.0952C69.3452 47.7744 69.434 47.4354 69.4722 47.0889L69.5726 46.1783L69.7308 44.586L69.8889 40.4459V40.0287C69.8889 39.4627 69.7816 38.9018 69.5726 38.3758L67.7497 35.1632C67.7003 35.076 67.663 34.9825 67.6388 34.8853L67.5502 34.5281C67.5292 34.4435 67.4723 34.3724 67.3945 34.3332C67.279 34.275 67.1392 34.2978 67.0481 34.3895L66.9992 34.4388C66.9258 34.5127 66.8846 34.6126 66.8846 34.7167V35.0684C66.8846 35.15 66.8766 35.2314 66.8607 35.3114L66.7265 35.9873L66.5684 36.7834L65.8967 39.2186C65.8176 39.5053 65.7112 39.7838 65.5789 40.0503C65.3961 40.4185 65.2628 40.8094 65.1827 41.2127L65.1453 41.4013L64.7666 42.9268C64.7029 43.1832 64.6173 43.4336 64.5106 43.6753L64.2371 44.2952C64.1067 44.5905 64.0524 44.9138 64.079 45.2355L64.1416 45.992C64.1743 46.3869 63.946 46.757 63.5786 46.905L63.4904 46.9405C63.4347 46.963 63.3842 46.9965 63.3418 47.0391C63.2806 47.1008 63.2388 47.1793 63.2219 47.2646L63.1382 47.6861C63.106 47.8479 63.0526 48.0048 62.9792 48.1526L62.9639 48.1833C62.8382 48.4365 62.6633 48.662 62.4493 48.8467L62.3652 48.9193C61.9126 49.31 61.3422 49.5379 60.745 49.5665L58.6629 49.6663C58.4572 49.6762 58.2538 49.6195 58.0829 49.5048L58.0285 49.4682C57.9258 49.3993 57.8429 49.3048 57.7879 49.194L57.7817 49.1816C57.737 49.0915 57.7137 48.9922 57.7137 48.8916C57.7137 48.6871 57.8096 48.4944 57.9728 48.3712L58.3462 48.0892L58.8205 47.7707C59.3414 47.3511 59.7651 46.8235 60.0626 46.2244L61.1923 43.949C61.8176 42.7946 62.1891 41.52 62.282 40.2104L62.2991 39.9682L62.4123 39.0569C62.4421 38.8167 62.4332 38.5733 62.3861 38.3359C62.3287 38.0468 62.2155 37.7717 62.0528 37.5259L61.6667 36.9427L61.1107 36.1962C60.855 35.8528 60.5004 35.5958 60.0945 35.4595C59.8791 35.3872 59.6533 35.3503 59.4261 35.3503H59.2977C59.0856 35.3503 58.8742 35.3737 58.6673 35.42L58.2671 35.5096C57.7942 35.6154 57.311 35.6688 56.8264 35.6688H53.2863L50.5983 35.828H46.1709H44.4316L41.7436 35.5096L40.3205 35.1911L38.265 34.7134L36.2094 34.3949L34.4751 34.2922C33.9577 34.2615 33.5214 34.6728 33.5214 35.1911L33.6795 37.2611V38.2166V39.0127L33.4214 41.2222C33.3828 41.5525 33.3869 41.8864 33.4336 42.2157L33.4417 42.2728C33.4945 42.6448 33.6065 43.0059 33.7736 43.3425C33.921 43.6392 34.0256 43.9553 34.0845 44.2813L34.312 45.5414L34.572 46.9818C34.6013 47.1439 34.4767 47.293 34.312 47.293H34.0256C34.0058 47.293 33.986 47.2905 33.9667 47.2857L33.8915 47.2668C33.7046 47.2197 33.5575 47.4272 33.6639 47.588C33.6743 47.6036 33.6825 47.6205 33.6883 47.6382L33.7511 47.8277C33.8084 48.0009 33.8376 48.1821 33.8376 48.3646V49.0446V49.1705C33.8376 49.4838 33.661 49.7704 33.3811 49.9114C33.2654 49.9696 33.1376 50 33.0081 50H29.1333C28.9697 50 28.8631 49.8281 28.9359 49.6815L29.1812 49.1875C29.3318 48.8841 29.551 48.6198 29.8213 48.4156C29.9683 48.3046 30.1007 48.1754 30.2153 48.0312L30.6752 47.4522C30.8815 47.1407 30.9915 46.7753 30.9915 46.4016V46.3376V42.6752C30.8867 41.8309 30.653 41.0077 30.2985 40.2343L29.8846 39.3312L29.2521 37.4204L28.973 36.4367C28.9511 36.3592 28.8803 36.3057 28.7998 36.3057C28.7003 36.3057 28.6197 36.3864 28.6197 36.4858V36.7834L28.5235 37.558C28.4823 37.8901 28.4086 38.2173 28.3034 38.535C28.0933 39.2755 27.9723 40.0384 27.943 40.8075L27.8291 43.7898V46.0435C27.8291 46.1333 27.8217 46.2228 27.807 46.3114L27.7098 46.8992C27.6854 47.0466 27.592 47.1735 27.4586 47.2407L27.2349 47.3533C27.1266 47.4079 26.9946 47.3638 26.9406 47.2552C26.9037 47.1808 26.8278 47.1338 26.7447 47.1338H26.7405C26.6369 47.1338 26.5466 47.2044 26.5216 47.305L26.406 47.7707L26.2479 48.4076L26.2311 48.4583C26.1406 48.7317 25.9452 48.9581 25.6879 49.0877C25.5363 49.164 25.3688 49.2038 25.199 49.2038H23.5598H22.5204C22.376 49.2038 22.2377 49.1462 22.136 49.0438C22.0352 48.9423 21.9786 48.8051 21.9786 48.6621V48.6465C21.9786 48.4935 22.0391 48.3467 22.1469 48.2382L22.7692 47.6115L23.1464 47.2317C23.4215 46.9546 23.6719 46.6541 23.8948 46.3334C24.4042 45.6005 24.7624 44.7732 24.9481 43.9001L25.141 42.9936L25.3989 41.4357C25.4374 41.2029 25.4279 40.9647 25.3711 40.7356C25.3235 40.5439 25.2434 40.3617 25.1343 40.1969L25.1208 40.1765C25.0293 40.0382 24.9565 39.8884 24.9044 39.731L24.8397 39.5356C24.7251 39.1893 24.6667 38.8268 24.6667 38.4619V38.2166V36.7834V35.2014C24.6667 34.7323 24.3359 34.3283 23.8761 34.2357L23.3134 34.1547C22.9517 34.1027 22.5968 34.0113 22.2549 33.8822L22.0128 33.7908C21.6759 33.6636 21.3614 33.4836 21.081 33.2577C20.8373 33.0614 20.6218 32.8323 20.4408 32.5771L20.2776 32.347C20.042 32.0148 19.8445 31.6572 19.6888 31.2809L19.1325 29.9363L18.3419 28.0255L17.7094 26.7516L17.1357 25.885C16.8911 25.5155 16.7607 25.0822 16.7607 24.639C16.7607 24.4557 16.7384 24.2731 16.6942 24.0952L16.6915 24.0845C16.6326 23.847 16.5369 23.6202 16.4078 23.4123L15.812 22.4522L15.3376 21.8153L14.547 20.8599L13.4402 19.2675L12.9065 18.6226C12.7438 18.4259 12.5018 18.3121 12.2466 18.3121C12.1991 18.3121 12.1517 18.3161 12.1048 18.3239L11.2265 18.4713C10.602 18.5762 9.96188 18.5397 9.35329 18.3646L9.17094 18.3121L8.46616 18.0459C8.10012 17.9077 7.70255 17.8754 7.31898 17.9526C7.18359 17.9799 7.04581 17.9936 6.9077 17.9936H5.85043H5.75859C5.61496 17.9936 5.47727 17.9363 5.37607 17.8344C5.27486 17.7325 5.13717 17.6752 4.99354 17.6752H4.91594C4.80261 17.6752 4.69086 17.7017 4.58965 17.7527L4.42735 17.8344L4.24706 17.9252C4.15654 17.9708 4.06289 18.0098 3.96681 18.0421C3.74821 18.1154 3.51917 18.1529 3.28859 18.1529H2.69492C2.48811 18.1529 2.28984 18.0703 2.14411 17.9236L2.12071 17.9C2.07755 17.8566 2.04166 17.8064 2.01443 17.7516C1.94018 17.602 1.80421 17.4925 1.64231 17.4517L1.50299 17.4166C1.34725 17.3774 1.20515 17.2965 1.092 17.1825L0.948715 17.0382L0.330826 16.2915C0.216682 16.1536 0.12925 15.9956 0.0729904 15.8256C0.0246429 15.6795 0 15.5267 0 15.3728V14.6497V14.3121C0 14.1203 0.0758133 13.9364 0.210907 13.8003C0.280403 13.7304 0.363411 13.6753 0.454887 13.6384L1.10683 13.3758L1.26661 13.3356C1.57857 13.257 1.87159 13.1167 2.12829 12.9228C2.28998 12.8006 2.43557 12.6586 2.5616 12.4999L4.26923 10.3503L5.03932 9.44553C5.1573 9.30693 5.24735 9.14683 5.30454 8.97404C5.35192 8.83091 5.37607 8.68112 5.37607 8.53035V8.18911C5.37607 8.03792 5.3909 7.8871 5.42035 7.73881C5.49506 7.36259 5.66222 7.01088 5.90675 6.71536L6.32478 6.21019L7.04304 5.48687C7.1961 5.33273 7.36752 5.19797 7.55345 5.08562L7.88559 4.88493C8.00313 4.81391 8.10342 4.71767 8.17923 4.60316C8.30849 4.40789 8.35909 4.17095 8.32085 3.93992L8.25587 3.54725C8.23356 3.41247 8.19134 3.28175 8.13058 3.15938C7.98557 2.86729 7.74168 2.63609 7.44227 2.50687L7.23774 2.4186C6.94946 2.29417 6.69477 2.10317 6.4946 1.86126L6.14587 1.43985C6.0548 1.32978 5.98013 1.20712 5.92419 1.07567L5.58846 0.286784C5.55565 0.209663 5.5728 0.120348 5.63186 0.0608741C5.67055 0.0219119 5.72318 0 5.77809 0H6.05756C6.23176 0 6.40202 0.0518519 6.54665 0.148951L6.62834 0.203802C6.74139 0.279695 6.8407 0.374265 6.92202 0.483464L7.02895 0.627038C7.19065 0.844165 7.39029 1.03026 7.61823 1.17633L8.83132 1.95375C8.95186 2.031 9.08146 2.0931 9.21718 2.13867L9.33728 2.17898C9.43655 2.21231 9.54058 2.2293 9.64529 2.2293C9.75002 2.2293 9.85404 2.21231 9.95332 2.17898L10.2778 2.07006L10.71 1.92496C10.7379 1.9156 10.7671 1.91083 10.7965 1.91083C10.9467 1.91083 11.0684 1.78912 11.0684 1.639V1.49944C11.0684 1.45551 11.0613 1.41187 11.0475 1.37016L10.9103 0.955414L10.7967 0.61234C10.7682 0.526091 10.7748 0.432059 10.8152 0.350685L10.8261 0.3287C10.8777 0.22489 10.9836 0.159236 11.0995 0.159236C11.1808 0.159236 11.2587 0.191684 11.316 0.24938L11.3846 0.318471C11.5936 0.528935 11.7833 0.761506 11.947 1.00882L12.0007 1.08988C12.2211 1.42287 12.4916 1.71987 12.8026 1.97041L12.9535 2.092C13.0668 2.18328 13.1894 2.26229 13.3194 2.32772L13.6025 2.47026C13.7037 2.52122 13.8154 2.54777 13.9288 2.54777H14.0658C14.1714 2.54777 14.2726 2.58992 14.347 2.66486C14.4666 2.78527 14.4963 2.96844 14.4208 3.12044L14.4098 3.14257C14.3959 3.17058 14.3851 3.20002 14.3776 3.23038L14.2483 3.75094C14.2367 3.79791 14.2308 3.84612 14.2308 3.89452C14.2308 4.05184 14.293 4.20278 14.4038 4.31441L14.8632 4.77707C15.5917 5.51068 16.4765 6.07023 17.4516 6.41391L18.3207 6.72023C18.861 6.91069 19.4156 7.05821 19.9792 7.1614L20.7515 7.30282C21.9887 7.52935 23.2439 7.64331 24.5016 7.64331H25.6154L30.8333 8.12102L33.9957 8.43949L38.8974 9.07643H42.3761L46.4872 8.59873L50.4402 8.28026L52.812 7.80255C54.8047 7.27445 56.8624 7.03271 58.9232 7.08459L62.141 7.16561H62.4153C64.5346 7.16561 66.637 7.54305 68.6239 8.28026L69.3167 8.54189C69.6965 8.68532 70.0558 8.87803 70.3854 9.11509C70.7896 9.40589 71.1444 9.75996 71.4359 10.1637L71.9547 10.882C72.1583 11.164 72.3384 11.4623 72.4931 11.7739L72.5202 11.8285C72.6632 12.1164 72.7812 12.416 72.8729 12.7241C73.0948 13.4689 73.16 14.2517 73.0642 15.023L73.0513 15.1274V15.4019C73.0513 16.1706 72.9449 16.9356 72.735 17.6752C72.6299 18.2047 72.5769 18.7432 72.5769 19.2831V19.9045C72.5769 20.2187 72.5042 20.5286 72.3645 20.81L72.2607 21.0191L72.0557 21.3287C71.9832 21.4383 71.9444 21.5669 71.9444 21.6984C71.9444 21.8753 72.0144 22.0449 72.139 22.1704L72.2607 22.293L72.8932 22.9299L73.3241 23.3639C73.458 23.4987 73.5748 23.6494 73.672 23.8126Z" fill="#2A2A2A"/>
</svg>
