<svg width="49" height="33" viewBox="0 0 49 33" fill="none" xmlns="http://www.w3.org/2000/svg">
<path d="M47.9466 15.4685L48.08 15.692C48.1325 15.7799 48.1602 15.8803 48.1602 15.9826C48.1602 16.2526 47.9665 16.4858 47.7018 16.539C47.6647 16.5465 47.6266 16.5503 47.5888 16.5503H47.4243C47.2366 16.5503 47.0567 16.4755 46.9243 16.3424C46.857 16.2748 46.8042 16.1943 46.769 16.1058L46.6743 15.8679C46.6359 15.7713 46.5898 15.678 46.5365 15.5887L46.3078 15.2056L46.102 14.7918L45.9596 14.5055C45.9176 14.421 45.8884 14.3308 45.873 14.2377C45.823 13.9362 45.9239 13.6261 46.1395 13.4095C46.1827 13.3661 46.222 13.318 46.2558 13.267C46.3569 13.1146 46.4108 12.9359 46.4108 12.753V12.5162V11.3783L46.5137 10.2405V9.41299V9.33283C46.5137 8.99111 46.3588 8.6678 46.0925 8.45366L46.0212 8.39634C46.0065 8.38454 45.9907 8.37434 45.9738 8.36589L45.9572 8.35752C45.7875 8.27225 45.5875 8.39559 45.5875 8.58548V8.8958L45.3817 10.9646L45.2788 13.2403V14.0678V15.8262L45.3817 17.4813L45.3901 17.5319C45.453 17.9113 45.5454 18.2853 45.6665 18.6503L45.7686 18.9582C45.8535 19.2142 45.9634 19.4613 46.0967 19.6958L46.1248 19.7453C46.2465 19.9594 46.3901 20.1602 46.5532 20.3447L46.9428 20.7853C47.0665 20.9252 47.1546 21.0928 47.1997 21.274C47.2225 21.3656 47.234 21.4597 47.234 21.5541V21.5975C47.234 21.6806 47.2272 21.7635 47.2136 21.8454L47.1311 22.3429C47.063 22.7536 47.0661 23.173 47.1402 23.5826L47.234 24.1014L47.2881 24.3371C47.4573 25.0741 47.5427 25.8278 47.5427 26.5839V29.2734V30.6813C47.5427 30.7694 47.493 30.8499 47.4143 30.8895C47.3644 30.9146 47.3071 30.9209 47.2529 30.9073L47.1634 30.8848C47.0292 30.8511 46.8916 30.9266 46.848 31.058C46.8313 31.1084 46.8301 31.1626 46.8446 31.2136L46.9748 31.6714C47.0096 31.7939 47.0068 31.924 46.9667 32.0449C46.8805 32.3046 46.6376 32.48 46.3639 32.48H44.1735C44.156 32.48 44.1387 32.4759 44.123 32.468C44.044 32.4283 44.0397 32.3171 44.1154 32.2714L44.4228 32.086C44.4445 32.0729 44.4646 32.0571 44.4825 32.0391L44.6164 31.9046C44.782 31.738 44.9145 31.5415 45.0066 31.3254L45.0418 31.2428C45.1307 31.0343 45.1885 30.8139 45.2134 30.5887L45.2788 29.9975L45.3817 28.9631L45.4846 26.2736V26.0028C45.4846 25.635 45.4148 25.2706 45.2788 24.9289L44.0924 22.842C44.0602 22.7854 44.0359 22.7246 44.0202 22.6614L43.9626 22.4297C43.9489 22.3746 43.9118 22.3283 43.8611 22.3028C43.786 22.265 43.6951 22.2798 43.6358 22.3394L43.6041 22.3713C43.5562 22.4194 43.5294 22.4845 43.5294 22.5523V22.7804C43.5294 22.8334 43.5242 22.8863 43.5138 22.9383L43.4265 23.3773L43.3236 23.8945L42.8865 25.4763C42.835 25.6626 42.7657 25.8436 42.6796 26.0166C42.5606 26.2559 42.4739 26.5098 42.4218 26.7719L42.3974 26.8943L42.151 27.8852C42.1095 28.0518 42.0538 28.2145 41.9844 28.3714L41.8064 28.774C41.7215 28.9659 41.6862 29.1761 41.7035 29.3852L41.7442 29.8756C41.7655 30.1325 41.6168 30.3734 41.3776 30.4695L41.3203 30.4926C41.2841 30.5071 41.2513 30.5289 41.2238 30.5566C41.1838 30.5967 41.1567 30.6477 41.1456 30.7032L41.0912 30.9768C41.0702 31.082 41.0354 31.1839 40.9877 31.28L40.9777 31.3C40.896 31.4644 40.7822 31.6108 40.6431 31.7306L40.5878 31.7783C40.2934 32.0319 39.9226 32.1798 39.5345 32.1984L38.1783 32.2633C38.0446 32.2697 37.9124 32.2329 37.8013 32.1584L37.7656 32.1345C37.6988 32.0898 37.6449 32.0284 37.6092 31.9565L37.6051 31.9484C37.576 31.8898 37.5608 31.8253 37.5608 31.7599C37.5608 31.6271 37.6232 31.502 37.7292 31.4221L37.9725 31.2387L38.2812 31.0318C38.6202 30.7592 38.896 30.4164 39.0898 30.0269L39.8248 28.5493C40.2317 27.7994 40.4735 26.9712 40.534 26.1202L40.5451 25.9633L40.6187 25.3714C40.6381 25.2153 40.6324 25.0572 40.6017 24.9029C40.5643 24.7152 40.4907 24.5365 40.3849 24.377L40.1335 23.998L39.772 23.5135C39.6054 23.2901 39.3744 23.123 39.1102 23.0344C38.9701 22.9875 38.8233 22.9636 38.6755 22.9636H38.5917C38.4537 22.9636 38.3161 22.9787 38.1815 23.0088L37.921 23.067C37.6132 23.1358 37.2988 23.1704 36.9834 23.1704H34.6795L32.9301 23.2739H30.0487H28.9167L27.1673 23.067L26.2412 22.8601L24.9034 22.5498L23.5656 22.3429L22.4358 22.2761C22.0997 22.2563 21.8162 22.5235 21.8162 22.8601L21.9191 24.2048V24.8255V25.3427L21.7512 26.7779C21.726 26.9925 21.7287 27.2094 21.7591 27.4234L21.7644 27.4603C21.7987 27.702 21.8717 27.9367 21.9804 28.1553C22.0763 28.348 22.1444 28.5534 22.1827 28.7652L22.3308 29.5837L22.4999 30.519C22.519 30.6245 22.438 30.7215 22.3308 30.7215H22.1444C22.1315 30.7215 22.1186 30.7199 22.1061 30.7168L22.0567 30.7044C21.9352 30.6739 21.8398 30.8088 21.909 30.9132C21.9157 30.9233 21.9211 30.9342 21.9249 30.9458L21.9657 31.0688C22.003 31.1814 22.022 31.2992 22.022 31.4177V31.8594V31.9404C22.022 32.1444 21.907 32.3309 21.7248 32.4225C21.6496 32.4603 21.5666 32.48 21.4824 32.48H18.9601C18.8538 32.48 18.7846 32.3683 18.832 32.2731L18.9914 31.9525C19.0896 31.7552 19.2323 31.5834 19.4082 31.4508C19.5039 31.3787 19.59 31.2947 19.6646 31.201L19.9639 30.825C20.0981 30.6226 20.1697 30.3851 20.1697 30.1423V30.1009V27.7218C20.1015 27.1734 19.9495 26.6387 19.7189 26.1364L19.4494 25.5496L19.0378 24.3083L18.8562 23.6694C18.8418 23.619 18.7958 23.5842 18.7434 23.5842C18.6786 23.5842 18.6261 23.6367 18.6261 23.7015V23.8945L18.5636 24.3976C18.5367 24.6134 18.4888 24.826 18.4203 25.0324C18.2836 25.5133 18.2049 26.009 18.1857 26.5086L18.1116 28.4459V29.9098C18.1116 29.9681 18.1068 30.0264 18.0973 30.084L18.034 30.4653C18.0181 30.5613 17.9573 30.6439 17.8703 30.6876L17.7248 30.7608C17.6543 30.7962 17.5685 30.7676 17.5334 30.697C17.5094 30.6487 17.46 30.6181 17.406 30.6181H17.4032C17.3357 30.6181 17.2769 30.664 17.2606 30.7295L17.1855 31.0318L17.0826 31.4456L17.0718 31.4779C17.0128 31.6559 16.8855 31.8032 16.718 31.8874C16.6194 31.937 16.5106 31.9628 16.4002 31.9628H15.3331H14.6563C14.5626 31.9628 14.4727 31.9254 14.4066 31.859C14.341 31.793 14.3041 31.7037 14.3041 31.6105V31.6008C14.3041 31.5014 14.3434 31.4061 14.4135 31.3356L14.8186 30.9284L15.0643 30.6814C15.2432 30.5016 15.406 30.3065 15.551 30.0984C15.8826 29.6221 16.1158 29.0844 16.2368 28.5168L16.3622 27.9287L16.53 26.9167C16.5551 26.7654 16.5489 26.6106 16.5119 26.4618C16.4809 26.3373 16.4289 26.219 16.3579 26.112L16.3491 26.0986C16.2895 26.0088 16.2421 25.9115 16.2082 25.8092L16.1662 25.6824C16.0915 25.4574 16.0535 25.2218 16.0535 24.9847V24.8255V23.8945V22.8678C16.0535 22.5625 15.8382 22.2997 15.539 22.2395L15.1725 22.1869C14.9373 22.1531 14.7064 22.0938 14.4841 22.0099L14.326 21.9504C14.107 21.8678 13.9024 21.751 13.72 21.6043C13.5613 21.4767 13.421 21.3278 13.3031 21.1618L13.1972 21.0128C13.0437 20.7969 12.9151 20.5644 12.8137 20.3197L12.4518 19.4466L11.9373 18.2053L11.5256 17.3778L11.1521 16.8147C10.993 16.5748 10.9082 16.2934 10.9082 16.0056C10.9082 15.8865 10.8937 15.7678 10.8649 15.6522L10.8632 15.6453C10.8248 15.491 10.7626 15.3438 10.6786 15.2088L10.2908 14.585L9.98204 14.1712L9.46751 13.5506L8.74717 12.5162L8.40004 12.0975C8.294 11.9696 8.13649 11.8955 7.97035 11.8955C7.93945 11.8955 7.9086 11.8981 7.87812 11.9032L7.30648 11.999C6.90001 12.0671 6.48345 12.0434 6.08733 11.9296L5.9687 11.8955L5.51008 11.7227C5.2718 11.6328 5.01308 11.6118 4.76343 11.662C4.67531 11.6797 4.58565 11.6887 4.49577 11.6887H3.80768H3.74778C3.65438 11.6887 3.56483 11.6514 3.49896 11.5852C3.43309 11.519 3.34354 11.4818 3.25014 11.4818H3.19948C3.12574 11.4818 3.05302 11.499 2.98714 11.5321L2.88152 11.5852L2.76424 11.6442C2.7053 11.6738 2.64432 11.6992 2.58177 11.7201C2.43953 11.7678 2.2905 11.7921 2.14048 11.7921H1.75373C1.61932 11.7921 1.49045 11.7385 1.39565 11.6432L1.38035 11.6279C1.35226 11.5996 1.32889 11.567 1.31115 11.5314C1.26284 11.4343 1.17447 11.3631 1.06926 11.3367L0.978271 11.3138C0.876945 11.2884 0.78447 11.2358 0.710785 11.1617L0.617592 11.068L0.215355 10.5828C0.141144 10.4933 0.0842819 10.3908 0.0476837 10.2804C0.016201 10.1855 0.000156403 10.0861 0.000156403 9.98608V9.51643V9.29743C0.000156403 9.1727 0.0495415 9.05303 0.137516 8.9646C0.182678 8.91921 0.23661 8.88348 0.296021 8.85959L0.720497 8.68892L0.824787 8.66271C1.02762 8.61174 1.21817 8.52061 1.38516 8.39471C1.49046 8.31533 1.5853 8.22295 1.66742 8.11977L2.77862 6.72357L3.27992 6.13569C3.35662 6.04574 3.41518 5.9418 3.45239 5.8296C3.48324 5.73658 3.49896 5.63922 3.49896 5.54122V5.31973C3.49896 5.22146 3.50862 5.12344 3.52779 5.02706C3.57641 4.78273 3.68513 4.55435 3.84413 4.36256L4.1164 4.03414L4.58381 3.5643C4.68345 3.46415 4.79501 3.37661 4.91598 3.30365L5.13241 3.17312C5.20876 3.12707 5.27393 3.06464 5.3232 2.99034C5.40738 2.86343 5.44032 2.70934 5.41541 2.5591L5.3732 2.30449C5.35866 2.2168 5.33115 2.13177 5.29156 2.0522C5.19722 1.86254 5.0387 1.71248 4.84417 1.62868L4.71048 1.57109C4.52291 1.49028 4.35715 1.36618 4.2268 1.20894L3.99986 0.935196C3.94065 0.863786 3.89211 0.784177 3.85573 0.69885L3.63726 0.186444C3.61586 0.136271 3.62704 0.078137 3.66551 0.0394695C3.69064 0.0142047 3.72481 0 3.76045 0H3.94251C4.05587 0 4.16668 0.0336937 4.26085 0.0968014L4.31385 0.13232C4.38749 0.181667 4.4522 0.243178 4.50521 0.314224L4.57468 0.407328C4.67991 0.548371 4.80979 0.669222 4.95803 0.764048L5.7476 1.2691C5.8261 1.31932 5.91048 1.35969 5.99884 1.38929L6.07694 1.41546C6.14156 1.43711 6.20927 1.44815 6.27742 1.44815C6.34558 1.44815 6.41328 1.43711 6.4779 1.41546L6.68904 1.34471L6.9704 1.25044C6.98852 1.24437 7.00751 1.24127 7.02662 1.24127C7.12435 1.24127 7.20358 1.16205 7.20358 1.06432V0.9741C7.20358 0.945522 7.19899 0.917129 7.18999 0.890004L7.10067 0.620637L7.02682 0.397933C7.00821 0.341813 7.01254 0.28061 7.03888 0.227672L7.04582 0.213709C7.07942 0.146152 7.14838 0.103439 7.22383 0.103439C7.27674 0.103439 7.32746 0.124527 7.36478 0.162035L7.40939 0.206879C7.54537 0.343564 7.66887 0.494684 7.77544 0.655361L7.81013 0.707679C7.95374 0.924194 8.12987 1.11726 8.33234 1.28007L8.43034 1.35888C8.50414 1.41823 8.58402 1.4696 8.66864 1.51213L8.85278 1.60467C8.91866 1.63779 8.99138 1.65503 9.06512 1.65503H9.15462C9.22316 1.65503 9.28888 1.68235 9.33722 1.73094C9.4151 1.80923 9.43441 1.92845 9.38523 2.02732L9.37822 2.04142C9.36917 2.05961 9.36213 2.07874 9.35722 2.09845L9.27312 2.4366C9.26553 2.46712 9.2617 2.49845 9.2617 2.5299C9.2617 2.63207 9.30215 2.73009 9.37421 2.80252L9.67332 3.10318C10.1474 3.57975 10.723 3.94313 11.3571 4.16623L11.9238 4.36557C12.2752 4.48922 12.6359 4.58499 13.0024 4.65197L13.5056 4.74394C14.3107 4.89107 15.1274 4.9651 15.9459 4.9651H16.6709L20.0668 5.27541L22.1249 5.48229L25.315 5.89605H27.579L30.2545 5.58573L32.8272 5.37885L34.3708 5.06853C35.6677 4.72548 37.0067 4.56844 38.3478 4.60215L40.4422 4.65478H40.6212C42.0002 4.65478 43.3682 4.89995 44.6614 5.37885L45.1126 5.54895C45.3595 5.64203 45.5932 5.76712 45.8075 5.92103C46.0708 6.11002 46.3018 6.34021 46.4917 6.60274L46.8291 7.0691C46.9616 7.25219 47.0788 7.44589 47.1794 7.64823L47.1972 7.68395C47.2902 7.87087 47.3669 8.06541 47.4266 8.26546C47.5711 8.74937 47.6134 9.258 47.5511 9.75915L47.5427 9.82675V10.0049C47.5427 10.5044 47.4735 11.0014 47.3369 11.4818C47.2685 11.8257 47.234 12.1756 47.234 12.5263V12.9299C47.234 13.134 47.1867 13.3354 47.0958 13.5181L47.0282 13.654L46.8948 13.8552C46.8476 13.9264 46.8224 14.0099 46.8224 14.0953C46.8224 14.2102 46.8678 14.3204 46.9489 14.4018L47.0282 14.4815L47.4398 14.8953L47.7204 15.1774C47.8074 15.2648 47.8834 15.3626 47.9466 15.4685Z" fill="white"/>
</svg>
