<svg width="26" height="26" viewBox="0 0 26 26" fill="none" xmlns="http://www.w3.org/2000/svg">
<path d="M19.1648 9.87396C17.2534 8.81975 15.6 7.90771 15.6 6.76006V1.04006C15.6 0.753652 15.3684 0.520058 15.08 0.520058H14.7753L14.4077 0.152402C14.2045 -0.0507231 13.8755 -0.0507231 13.6723 0.152402L13.4184 0.406308L12.7136 0.0549021C12.5125 -0.0446293 12.2708 -0.00603559 12.1123 0.152402L11.8584 0.406308L11.1536 0.0549021C10.9931 -0.0263481 10.8002 -0.0161918 10.6478 0.077246C10.4934 0.172714 10.4 0.339277 10.4 0.520058V6.76006C10.4 8.16162 8.63687 9.11428 6.59547 10.2193C3.65625 11.8057 0 13.7821 0 18.2001C0 21.9274 3.03266 24.9601 6.76 24.9601C6.96719 24.9601 7.17844 24.9479 7.39172 24.9276C7.39375 24.9276 7.39578 24.9255 7.39578 24.9255C7.60703 24.9052 7.81828 24.8727 8.03156 24.8321C8.22453 24.7955 8.41547 24.7488 8.60437 24.696C7.77156 23.528 7.28 22.0005 7.28 20.2801C7.28 17.4505 8.31797 14.9805 8.36062 14.8769C8.47437 14.6129 8.77906 14.489 9.04312 14.6007C9.30719 14.7144 9.43109 15.0191 9.31938 15.2832C9.30922 15.3076 8.32 17.6699 8.32 20.2801C8.32 23.5402 10.3309 26.0001 13 26.0001C15.6691 26.0001 17.68 23.5402 17.68 20.2801C17.68 15.4701 14.7367 12.3521 14.7062 12.3216C14.5072 12.1144 14.5133 11.7854 14.7184 11.5863C14.9256 11.3872 15.2547 11.3913 15.4537 11.5985C15.5878 11.7366 18.72 15.0394 18.72 20.2801C18.72 22.0066 18.2223 23.5422 17.3834 24.7122C17.9603 24.8788 18.5737 24.9601 19.24 24.9601C22.9673 24.9601 26 21.9274 26 18.2001C26 13.6399 22.2117 11.5518 19.1648 9.87396Z" fill="#090A0E"/>
</svg>
