<svg width="27" height="27" viewBox="0 0 27 27" fill="none" xmlns="http://www.w3.org/2000/svg">
<path d="M25.2818 3.23245e-05C24.5619 3.23245e-05 23.8399 0.225735 23.2276 0.759406C22.6812 1.23612 22.1918 1.94276 21.6826 2.93628C21.5926 2.93628 21.5071 2.9405 21.4193 2.95315C20.8179 3.04386 20.2715 3.37925 19.9269 3.8644C19.6768 3.818 19.4068 3.78003 19.1018 3.78003C17.3658 3.78003 16.1105 4.6955 15.5202 6.31127C15.5136 6.3176 15.5092 6.32182 15.5026 6.32815C15.4741 6.36401 15.45 6.40409 15.4324 6.44627C15.1515 7.15924 14.8223 7.51362 14.6072 7.62752C14.3922 7.74143 14.2627 7.72877 14.0279 7.5769C13.5582 7.27315 12.9745 6.18049 12.9745 4.86003C12.9723 4.64065 12.834 4.44448 12.6211 4.36222C12.4104 4.28206 12.1668 4.33057 12.0088 4.48878C10.1325 6.4062 10.1851 8.12744 10.4638 9.39939C10.6043 10.0343 10.7579 10.5722 10.7623 11.0025C10.7667 11.4328 10.6745 11.7619 10.218 12.2006C10.1347 12.2808 9.86471 12.4074 9.586 12.4031C9.30729 12.3989 9.04393 12.3082 8.8135 12.0319C8.72133 11.918 8.68183 11.7724 8.70816 11.4919C8.7345 11.2113 8.83984 10.8443 8.91884 10.4288C8.99785 10.0132 9.04832 9.53861 8.9364 9.04502C8.82448 8.55143 8.51284 8.05151 7.97078 7.66127C7.78643 7.53682 7.54283 7.53049 7.3519 7.6444C7.16097 7.75831 7.06002 7.97135 7.09294 8.1844C7.16536 8.59783 7.11927 8.85729 7.05782 8.9944C6.99638 9.13151 6.91518 9.17369 6.81203 9.21377C6.60574 9.29604 6.19315 9.17158 6.16243 9.14627C6.15584 9.14627 6.15146 9.14627 6.14487 9.14627C5.87933 8.93322 5.65328 8.7033 5.61817 8.0494C5.58306 7.39549 5.81349 6.29229 6.68913 4.55628C6.77911 4.37909 6.76375 4.17026 6.64743 4.00784C6.52893 3.84753 6.33141 3.75893 6.12732 3.78003C6.03953 3.78847 5.95614 3.818 5.88152 3.8644C3.80543 5.16589 2.89028 6.64667 2.80908 8.1169C2.72788 9.58713 3.42138 10.9498 4.19607 12.2006C4.97076 13.4515 5.84641 14.6074 6.30288 15.5588C6.53112 16.0355 6.64963 16.451 6.63646 16.7738C6.62329 17.0965 6.52673 17.3454 6.19754 17.6344C6.19096 17.6407 6.18657 17.6449 6.17999 17.6513C6.011 17.8074 5.82666 17.8411 5.54794 17.7863C5.26923 17.7314 4.92907 17.55 4.63499 17.2631C4.04464 16.6915 3.67815 15.7697 4.07317 14.7656C4.15657 14.5526 4.09292 14.31 3.91077 14.1624C3.72862 14.0147 3.47185 13.9936 3.26556 14.1075C1.9093 14.8247 0.750553 16.6282 1.24653 18.9506C1.40893 19.7965 1.90491 20.9988 2.05414 22.1906C2.12876 22.7855 2.11559 23.3634 1.96636 23.8444C1.84127 24.2515 1.61742 24.5995 1.24653 24.8906C1.24214 24.8927 1.23336 24.8885 1.22897 24.8906C0.386249 25.2682 0 25.4348 0 25.92C0 26.8376 1.29262 27 3.3709 27C10.3936 27 23.1969 23.2664 26.7916 9.28127C27.5773 6.25643 25.9599 5.07518 24.9482 4.59003C24.5949 4.42128 24.202 4.358 23.807 4.3369C23.6248 3.85386 23.2759 3.45307 22.8063 3.20628C23.2408 2.39839 23.6292 1.8605 23.9826 1.55253C24.4105 1.18128 24.766 1.08003 25.2818 1.08003C25.4837 1.08214 25.6724 0.98089 25.7755 0.812141C25.8765 0.643391 25.8765 0.436673 25.7755 0.267923C25.6724 0.099173 25.4837 -0.00207705 25.2818 3.23245e-05ZM21.6651 4.01628C21.7924 4.10065 21.9526 4.13229 22.104 4.10065C22.2905 4.15761 22.4507 4.25675 22.578 4.4044C22.5429 4.41073 22.5078 4.41495 22.4727 4.42128C22.1918 4.47612 21.9065 4.54362 21.6826 4.48878C21.5707 4.48878 21.3425 4.37487 21.1735 4.32003C21.1406 4.29893 21.1032 4.27151 21.0681 4.25253C21.2371 4.11542 21.4412 4.03315 21.6651 4.01628ZM12.0966 6.14252C12.3227 7.13815 12.7177 8.01987 13.4134 8.47127C13.7755 8.70541 14.2364 8.80244 14.6775 8.7244C10.9093 18.9253 5.89249 22.3868 3.07244 23.9794C3.23703 23.3445 3.23923 22.6884 3.16022 22.0556C2.98685 20.6824 2.47112 19.3599 2.35261 18.7481C2.35261 18.7418 2.35261 18.7376 2.35261 18.7313C2.10462 17.5711 2.39211 16.6641 2.8442 15.9975C2.94954 16.7991 3.30506 17.5142 3.82738 18.0225C4.25532 18.4381 4.78203 18.7418 5.33726 18.8494C5.89249 18.957 6.50479 18.8388 6.95248 18.4275C7.46602 17.974 7.73596 17.4045 7.7601 16.8244C7.78424 16.2443 7.60867 15.6811 7.33873 15.12C6.79886 13.9978 5.87933 12.8292 5.14414 11.6438C4.40895 10.4583 3.87127 9.27072 3.93272 8.16752C3.96783 7.54315 4.27727 6.91877 4.793 6.27752C4.57793 6.99471 4.4682 7.6001 4.49453 8.10002C4.54282 9.02604 5.00149 9.6251 5.40749 9.95627C5.41407 9.96049 5.41846 9.96893 5.42504 9.97314C5.89908 10.3676 6.5816 10.4921 7.25095 10.2263C7.49016 10.1313 7.65476 9.87611 7.83032 9.65252C7.83032 9.84236 7.85446 10.0217 7.81277 10.2431C7.74473 10.6038 7.64159 10.9941 7.60209 11.4075C7.56258 11.821 7.60647 12.3082 7.93566 12.7069C8.37897 13.2406 9.00443 13.4747 9.56844 13.4831C10.1325 13.4916 10.6416 13.3123 11.0081 12.96C11.6467 12.3462 11.8925 11.6353 11.8859 10.9856C11.8794 10.336 11.6972 9.7601 11.5699 9.18002C11.3658 8.24768 11.2736 7.33854 12.0966 6.14252Z" fill="#090A0E"/>
</svg>
