<svg width="20" height="26" viewBox="0 0 20 26" fill="none" xmlns="http://www.w3.org/2000/svg">
<path d="M8 0C7.73478 0 7.48043 0.105357 7.29289 0.292893C7.10536 0.48043 7 0.734784 7 1C7 6.057 0 10 0 17C0 22.3178 5.7635 25.7559 7.79297 25.9785C7.86104 25.9929 7.93043 26.0001 8 26C8.26522 26 8.51957 25.8946 8.70711 25.7071C8.89464 25.5196 9 25.2652 9 25C8.99992 24.8515 8.96676 24.7048 8.9029 24.5707C8.83905 24.4365 8.74612 24.3183 8.63086 24.2246C8.63086 24.224 8.63086 24.2233 8.63086 24.2227C7.72086 23.4847 6 21.3437 6 19.3887C6 16.1797 9 15 9 15C7.289 19.84 12.8954 20.4248 14.0234 25.2168H14.0254C14.0747 25.4387 14.198 25.6371 14.3752 25.7795C14.5524 25.9219 14.7727 25.9996 15 26C15.2106 25.9995 15.4157 25.9325 15.5859 25.8086C15.604 25.7955 15.6216 25.7818 15.6387 25.7676C15.8014 25.6619 20 22.885 20 17C20 14.5974 18.7983 10.4705 17.9336 8.64258C17.9329 8.64107 17.9324 8.63822 17.9316 8.63672C17.931 8.63542 17.9303 8.63411 17.9297 8.63281C17.856 8.44627 17.728 8.28618 17.5622 8.17333C17.3964 8.06048 17.2006 8.00009 17 8C16.7665 8.00022 16.5404 8.08218 16.3609 8.23165C16.1815 8.38113 16.06 8.5887 16.0176 8.81836C16.0176 8.81966 16.0176 8.82096 16.0176 8.82227C16.0151 8.83319 15.5558 10.873 14 12C14 7.28837 10.5984 2.42161 8.80469 0.408203C8.77777 0.371746 8.74841 0.337161 8.7168 0.304688C8.62377 0.208535 8.5124 0.132026 8.38928 0.0796897C8.26616 0.0273539 8.13378 0.000255838 8 0Z" fill="#090A0E"/>
</svg>
