<svg width="37" height="35" viewBox="0 0 37 35" fill="none" xmlns="http://www.w3.org/2000/svg">
<path d="M19.9537 14.6124C17.5809 12.856 17.3267 8.65561 22.0162 5.94812C25.2766 4.06574 28.1329 5.95167 29.6039 8.49945C31.8379 12.3689 28.7896 16.0344 28.7896 16.0344C28.7896 16.0344 30.6931 24.0384 24.6819 27.509C22.5402 28.7455 21.2446 29.0848 20.4285 29.556C19.6124 30.0271 19.0331 30.9083 18.627 31.1428C18.1174 31.437 13.9231 31.0029 11.2163 28.898C7.11336 25.5608 5.18892 22.4574 4.08562 20.7855C2.52885 18.558 2.11208 16.8984 2.58656 15.1276C2.94519 14.1031 3.39193 12.7624 4.35129 12.0705C5.41414 11.3189 6.11439 11.594 7.28443 11.7359C8.2912 11.834 8.71495 11.8601 9.1724 12.4134C9.28962 12.6164 9.68334 13.0685 9.27728 13.3029C9.55776 13.5497 9.60288 14.3358 9.03587 14.5304C9.36983 14.879 8.93772 15.5372 8.63119 15.7142C8.91167 15.961 8.35607 16.4144 8.15304 16.5316C7.95002 16.6489 7.74301 16.7684 7.48252 16.7861C7.48252 16.7861 6.85575 16.8772 6.8818 16.4535C6.9309 17.2372 5.94014 17.4059 6.65808 17.9415C7.1553 18.3338 8.88139 19.9169 11.0759 20.4174C13.6902 20.9463 15.0225 22.0773 16.1802 22.9057C15.6777 21.5663 14.184 16.8554 19.9537 14.6124Z" fill="black"/>
</svg>
