<svg width="48" height="48" viewBox="0 0 48 48" fill="none" xmlns="http://www.w3.org/2000/svg">
<g clip-path="url(#clip0)">
<path d="M37.3346 10.6668C37.3346 10.6668 34.0169 10.6563 32.418 12.1251C30.6836 13.9897 31.1836 16.0157 31.5846 16.4168C31.9857 16.6824 34.1367 17.323 36.0013 15.4584C37.3346 13.9897 37.3346 10.6668 37.3346 10.6668ZM20.743 19.7501L10.793 12.6668L35.3346 37.2084L36.7992 35.9996L27.9992 27.1996C29.7544 26.4756 31.5846 24.7918 31.5846 24.7918C31.5846 24.7918 30.1523 23.4584 27.0846 23.4584C26.5326 23.4584 26.0221 23.5574 25.5846 23.7084L24.293 22.4168C24.444 21.9793 24.543 21.4688 24.543 20.9168C24.543 17.849 23.2096 16.4168 23.2096 16.4168C23.2096 16.4168 21.6419 17.2865 20.918 19.0417L20.743 19.7501ZM29.4596 12.1251C27.9909 12.2605 25.7357 13.7188 25.3346 15.5834C24.668 17.9845 26.1419 19.6147 26.543 19.7501C26.944 19.8855 28.418 18.948 29.0846 17.0834C30.0169 14.4168 29.5951 12.1251 29.4596 12.1251ZM34.418 18.3334C33.5169 18.3334 32.2513 18.448 30.918 18.9167C28.918 19.7188 28.1159 21.0574 28.2513 21.4584C28.3867 21.8595 30.0169 23.3334 32.418 22.6668C34.418 22.1355 35.7409 20.0105 35.8763 18.5418C35.8763 18.474 35.319 18.3334 34.418 18.3334ZM16.918 22.5418C16.2513 23.2084 15.5846 24.4063 15.5846 25.8751C15.5846 28.8074 16.793 29.4584 17.4596 29.4584C18.1263 29.4584 19.5846 28.1355 19.5846 26.0001V25.2084L16.918 22.5418ZM13.3346 26.4168C13.3346 26.4168 10.668 27.8595 10.668 30.7918C10.668 33.724 11.8763 34.4168 12.543 34.4168C13.2096 34.4168 14.668 33.0522 14.668 30.9168C14.668 27.849 13.3346 26.4168 13.3346 26.4168ZM22.0013 28.4168C19.8659 28.4168 18.543 29.7397 18.543 30.5418C18.543 31.3438 19.194 32.4168 22.1263 32.4168C23.5951 32.4168 24.6576 31.7501 25.4596 31.0834L22.793 28.4168H22.0013ZM17.2096 33.3334C15.0742 33.3334 13.7513 34.7918 13.7513 35.4584C13.7513 36.1251 14.4023 37.3334 17.3346 37.3334C20.2669 37.3334 21.7513 34.6668 21.7513 34.6668C21.7513 34.6668 20.2773 33.3334 17.2096 33.3334Z" fill="white"/>
<path d="M8 8.80005L39.2 40" stroke="white" stroke-width="2"/>
</g>
<circle cx="24" cy="24" r="23" stroke="white" stroke-width="2"/>
<defs>
<clipPath id="clip0">
<rect width="32" height="32" fill="white" transform="translate(8 8)"/>
</clipPath>
</defs>
</svg>
