<svg width="30" height="30" viewBox="0 0 30 30" fill="none" xmlns="http://www.w3.org/2000/svg">
<g clip-path="url(#clip0)">
<path d="M23.3385 6.66699C23.3385 6.66699 21.265 6.66048 20.2656 7.57845C19.1816 8.74382 19.4941 10.0101 19.7448 10.2607C19.9954 10.4268 21.3398 10.8271 22.5052 9.66178C23.3385 8.74382 23.3385 6.66699 23.3385 6.66699ZM12.9688 12.3441L6.75 7.91699L22.0885 23.2555L23.0039 22.5L17.5039 17C18.6009 16.5475 19.7448 15.4951 19.7448 15.4951C19.7448 15.4951 18.8496 14.6618 16.9323 14.6618C16.5872 14.6618 16.2682 14.7236 15.9948 14.818L15.1875 14.0107C15.2819 13.7373 15.3438 13.4183 15.3438 13.0732C15.3438 11.1559 14.5104 10.2607 14.5104 10.2607C14.5104 10.2607 13.5306 10.8044 13.0781 11.9014L12.9688 12.3441ZM18.4167 7.57845C17.4987 7.66309 16.0892 8.57455 15.8385 9.73991C15.4219 11.2406 16.3431 12.2594 16.5938 12.3441C16.8444 12.4287 17.7656 11.8428 18.1823 10.6774C18.765 9.01074 18.5013 7.57845 18.4167 7.57845ZM21.5156 11.4587C20.9525 11.4587 20.1615 11.5303 19.3281 11.8232C18.0781 12.3245 17.5768 13.1611 17.6615 13.4118C17.7461 13.6624 18.765 14.5837 20.2656 14.167C21.5156 13.835 22.3424 12.5068 22.4271 11.5889C22.4271 11.5466 22.0788 11.4587 21.5156 11.4587ZM10.5781 14.0889C10.1615 14.5055 9.74479 15.2542 9.74479 16.1722C9.74479 18.0049 10.5 18.4118 10.9167 18.4118C11.3333 18.4118 12.2448 17.585 12.2448 16.2503V15.7555L10.5781 14.0889ZM8.33854 16.5107C8.33854 16.5107 6.67188 17.4124 6.67188 19.2451C6.67188 21.0778 7.42708 21.5107 7.84375 21.5107C8.26042 21.5107 9.17188 20.6579 9.17188 19.3232C9.17188 17.4059 8.33854 16.5107 8.33854 16.5107ZM13.7552 17.7607C12.4206 17.7607 11.5938 18.5876 11.5938 19.0889C11.5938 19.5902 12.0007 20.2607 13.8333 20.2607C14.7513 20.2607 15.4154 19.8441 15.9167 19.4274L14.25 17.7607H13.7552ZM10.7604 20.8337C9.42578 20.8337 8.59896 21.7451 8.59896 22.1618C8.59896 22.5785 9.00586 23.3337 10.8385 23.3337C12.6712 23.3337 13.599 21.667 13.599 21.667C13.599 21.667 12.6777 20.8337 10.7604 20.8337Z" fill="black"/>
<path d="M5 5.5L24.5 25" stroke="black" stroke-width="2"/>
</g>
<circle cx="15" cy="15" r="14" stroke="black" stroke-width="2"/>
<defs>
<clipPath id="clip0">
<rect width="20" height="20" fill="white" transform="translate(5 5)"/>
</clipPath>
</defs>
</svg>
