<svg width="49" height="48" viewBox="0 0 49 48" fill="none" xmlns="http://www.w3.org/2000/svg">
<circle cx="24.6016" cy="24" r="23" stroke="white" stroke-width="2"/>
<path d="M17.6516 28H15.4738L14.0627 25.2705L13.4914 25.6123V28H11.5529V20.8613H13.4914V23.9619C13.5891 23.7699 13.786 23.4655 14.0822 23.0488L15.5812 20.8613H17.6906L15.4396 24.0596L17.6516 28ZM23.6662 28H19.4279V20.8613H23.6662V22.4092H21.3566V23.5322H23.4953V25.0801H21.3566V26.4277H23.6662V28ZM29.0656 28H27.1369V22.4385H25.3937V20.8613H30.8039V22.4385H29.0656V28ZM39.5041 24.4209C39.5041 25.6221 39.2095 26.5352 38.6203 27.1602C38.0311 27.7852 37.1685 28.0977 36.0324 28.0977C34.9126 28.0977 34.0533 27.7835 33.4543 27.1553C32.8586 26.527 32.5607 25.6123 32.5607 24.4111C32.5607 23.223 32.857 22.3164 33.4494 21.6914C34.0451 21.0632 34.9094 20.749 36.0422 20.749C37.1783 20.749 38.0393 21.0599 38.6252 21.6816C39.2111 22.3034 39.5041 23.2165 39.5041 24.4209ZM34.592 24.4209C34.592 25.8011 35.0721 26.4912 36.0324 26.4912C36.5207 26.4912 36.882 26.3236 37.1164 25.9883C37.354 25.653 37.4729 25.1305 37.4729 24.4209C37.4729 23.708 37.3524 23.1823 37.1115 22.8438C36.8739 22.502 36.5174 22.3311 36.0422 22.3311C35.0754 22.3311 34.592 23.0277 34.592 24.4209Z" fill="white"/>
</svg>
