<svg width="30" height="30" viewBox="0 0 30 30" fill="none" xmlns="http://www.w3.org/2000/svg">
<circle cx="15" cy="15" r="14" stroke="black" stroke-width="2"/>
<path d="M10.075 18H8.55059L7.56279 16.0894L7.16289 16.3286V18H5.80596V13.0029H7.16289V15.1733C7.23125 15.0389 7.36911 14.8258 7.57646 14.5342L8.62578 13.0029H10.1023L8.52666 15.2417L10.075 18ZM14.2853 18H11.3185V13.0029H14.2853V14.0864H12.6686V14.8726H14.1656V15.9561H12.6686V16.8994H14.2853V18ZM18.0648 18H16.7147V14.1069H15.4945V13.0029H19.2816V14.1069H18.0648V18ZM25.3718 15.4946C25.3718 16.3354 25.1656 16.9746 24.7531 17.4121C24.3407 17.8496 23.7368 18.0684 22.9416 18.0684C22.1577 18.0684 21.5562 17.8485 21.1369 17.4087C20.7199 16.9689 20.5114 16.3286 20.5114 15.4878C20.5114 14.6561 20.7188 14.0215 21.1335 13.584C21.5505 13.1442 22.1555 12.9243 22.9484 12.9243C23.7437 12.9243 24.3464 13.1419 24.7565 13.5771C25.1667 14.0124 25.3718 14.6515 25.3718 15.4946ZM21.9333 15.4946C21.9333 16.4608 22.2694 16.9438 22.9416 16.9438C23.2834 16.9438 23.5363 16.8265 23.7004 16.5918C23.8667 16.3571 23.9499 15.9914 23.9499 15.4946C23.9499 14.9956 23.8656 14.6276 23.697 14.3906C23.5306 14.1514 23.2811 14.0317 22.9484 14.0317C22.2717 14.0317 21.9333 14.5194 21.9333 15.4946Z" fill="black"/>
</svg>
