<svg width="48" height="47" viewBox="0 0 48 47" fill="none" xmlns="http://www.w3.org/2000/svg">
<path d="M27.0856 20.0753C24.4609 16.7536 25.6862 10.8447 33.1931 8.85826C38.4123 7.47717 41.6574 11.1598 42.7367 15.2382C44.3758 21.4323 38.7806 25.3609 38.7806 25.3609C38.7806 25.3609 38.4099 37.1532 28.7873 39.6996C25.3589 40.6068 23.4383 40.59 22.1319 40.9357C20.8256 41.2814 19.6929 42.2834 19.0429 42.4554C18.2272 42.6713 12.5851 40.4958 9.6292 36.5662C5.20366 30.407 3.70541 25.3894 2.80618 22.6612C1.48794 18.9937 1.53424 16.5403 2.85577 14.2677C3.73677 12.9845 4.85845 11.2966 6.44599 10.6993C8.19921 10.058 9.06506 10.7017 10.6311 11.3374C11.9877 11.8512 12.5644 12.0464 12.9897 12.9839C13.0757 13.3089 13.4509 14.0825 12.8009 14.2545C13.0964 14.7013 12.8637 15.8062 12.0059 15.8627C12.3372 16.4705 11.4921 17.2192 11.0014 17.3491C11.2969 17.7959 10.3577 18.2149 10.0327 18.3009C9.70769 18.3869 9.37631 18.4746 9.00915 18.4013C9.00915 18.4013 8.10746 18.2921 8.30262 17.7155C8.07631 18.8186 6.64177 18.68 7.43431 19.6908C7.97516 20.4205 9.76971 23.2596 12.619 24.7763C16.0386 26.4898 17.458 28.5553 18.7492 30.1365C18.5565 28.0942 18.258 21.0134 27.0856 20.0753Z" fill="white"/>
</svg>
