<svg width="36" height="47" viewBox="0 0 36 47" fill="none" xmlns="http://www.w3.org/2000/svg">
<path d="M14.4 0C13.9226 0 13.4648 0.190453 13.1272 0.529461C12.7896 0.868469 12.6 1.32826 12.6 1.80769C12.6 10.9492 0 18.0769 0 30.7308C0 40.3438 10.3743 46.5588 14.0273 46.9612C14.1499 46.9871 14.2748 47.0001 14.4 47C14.8774 47 15.3352 46.8095 15.6728 46.4705C16.0104 46.1315 16.2 45.6717 16.2 45.1923C16.1999 44.9238 16.1402 44.6587 16.0252 44.4162C15.9103 44.1737 15.743 43.96 15.5355 43.7906C15.5355 43.7895 15.5355 43.7883 15.5355 43.7871C13.8975 42.453 10.8 38.5828 10.8 35.0488C10.8 29.2479 16.2 27.1154 16.2 27.1154C13.1202 35.8646 23.2118 36.9217 25.2422 45.5842H25.2457C25.3344 45.9853 25.5565 46.344 25.8754 46.6014C26.1942 46.8588 26.5909 46.9993 27 47C27.3791 46.9991 27.7482 46.878 28.0547 46.654C28.0871 46.6303 28.1188 46.6056 28.1496 46.5799C28.4426 46.3888 36 41.3691 36 30.7308C36 26.3876 33.837 18.9274 32.2805 15.6231C32.2792 15.6204 32.2782 15.6153 32.277 15.6125C32.2758 15.6102 32.2746 15.6078 32.2734 15.6055C32.1409 15.2683 31.9104 14.9789 31.612 14.7749C31.3136 14.5709 30.961 14.4617 30.6 14.4615C30.1796 14.4619 29.7726 14.6101 29.4496 14.8803C29.1266 15.1505 28.908 15.5257 28.8316 15.9409C28.8316 15.9432 28.8316 15.9456 28.8316 15.9479C28.8272 15.9677 28.0005 19.6551 25.2 21.6923C25.2 13.1751 19.0771 4.37753 15.8484 0.737906C15.8 0.672003 15.7471 0.609484 15.6902 0.550781C15.5228 0.376967 15.3223 0.238662 15.1007 0.144055C14.8791 0.0494475 14.6408 0.000462476 14.4 0Z" fill="white"/>
</svg>
