<svg width="42" height="42" viewBox="0 0 42 42" fill="none" xmlns="http://www.w3.org/2000/svg">
<path d="M39.3272 5.02825e-05C38.2074 5.02825e-05 37.0843 0.351144 36.1318 1.1813C35.2818 1.92286 34.5205 3.02208 33.7285 4.56754C33.5886 4.56754 33.4554 4.57411 33.3189 4.59379C32.3835 4.73489 31.5334 5.25661 30.9975 6.01129C30.6083 5.93911 30.1884 5.88004 29.7139 5.88004C27.0135 5.88004 25.0608 7.3041 24.1425 9.81754C24.1323 9.82738 24.1255 9.83395 24.1152 9.84379C24.0708 9.89957 24.0333 9.96191 24.006 10.0275C23.569 11.1366 23.0569 11.6878 22.7224 11.865C22.3878 12.0422 22.1864 12.0225 21.8211 11.7863C21.0906 11.3138 20.1825 9.6141 20.1825 7.56004C20.1791 7.21879 19.964 6.91364 19.6329 6.78567C19.3051 6.66098 18.9262 6.73645 18.6804 6.98254C15.7616 9.96519 15.8435 12.6427 16.2771 14.6213C16.4956 15.6089 16.7345 16.4457 16.7414 17.115C16.7482 17.7844 16.6048 18.2963 15.8947 18.9788C15.765 19.1035 15.3451 19.3003 14.9116 19.2938C14.478 19.2872 14.0683 19.1461 13.7099 18.7163C13.5665 18.5391 13.5051 18.3127 13.546 17.8763C13.587 17.4399 13.7509 16.8689 13.8738 16.2225C13.9967 15.5761 14.0752 14.8378 13.9011 14.07C13.727 13.3022 13.2422 12.5246 12.399 11.9175C12.1122 11.7239 11.7333 11.7141 11.4363 11.8913C11.1393 12.0685 10.9823 12.3999 11.0335 12.7313C11.1461 13.3744 11.0744 13.778 10.9788 13.9913C10.8833 14.2046 10.7569 14.2702 10.5965 14.3325C10.2756 14.4605 9.63379 14.2669 9.586 14.2275C9.57576 14.2275 9.56893 14.2275 9.55869 14.2275C9.14562 13.8961 8.79399 13.5385 8.73937 12.5213C8.68475 11.5041 9.0432 9.78801 10.4053 7.08754C10.5453 6.81192 10.5214 6.48707 10.3405 6.23442C10.1561 5.98504 9.84886 5.84723 9.53138 5.88004C9.39483 5.89317 9.2651 5.93911 9.14903 6.01129C5.91956 8.03582 4.496 10.3393 4.36969 12.6263C4.24338 14.9133 5.32214 17.033 6.52722 18.9788C7.7323 20.9246 9.09441 22.7227 9.80448 24.2025C10.1595 24.9441 10.3439 25.5905 10.3234 26.0925C10.3029 26.5946 10.1527 26.9817 9.64062 27.4313C9.63038 27.4411 9.62355 27.4477 9.61331 27.4575C9.35045 27.7003 9.06369 27.7528 8.63013 27.6675C8.19658 27.5822 7.66744 27.3 7.20998 26.8538C6.29167 25.9646 5.72156 24.5306 6.33605 22.9688C6.46577 22.6374 6.36677 22.26 6.08342 22.0303C5.80008 21.8006 5.40066 21.7678 5.07976 21.945C2.97002 23.0606 1.16753 25.8661 1.93905 29.4788C2.19167 30.7945 2.96319 32.6649 3.19533 34.5188C3.3114 35.4441 3.29092 36.3431 3.05878 37.0913C2.86419 37.7245 2.51598 38.2659 1.93905 38.7188C1.93222 38.722 1.91857 38.7155 1.91174 38.7188C0.600832 39.3061 0 39.5653 0 40.32C0 41.7473 2.01074 42 5.24362 42C16.1678 42 36.0841 36.1922 41.6759 14.4375C42.898 9.73223 40.382 7.89473 38.8083 7.14004C38.2587 6.87754 37.6476 6.77911 37.0331 6.74629C36.7497 5.99489 36.207 5.37145 35.4764 4.98754C36.1523 3.73083 36.7566 2.89411 37.3062 2.41505C37.9719 1.83755 38.5249 1.68005 39.3272 1.68005C39.6413 1.68333 39.9348 1.52583 40.0953 1.26333C40.2523 1.00083 40.2523 0.679268 40.0953 0.416769C39.9348 0.154269 39.6413 -0.00323096 39.3272 5.02825e-05ZM33.7012 6.24754C33.8992 6.37879 34.1484 6.42801 34.384 6.37879C34.6741 6.46739 34.9234 6.62161 35.1214 6.85129C35.0667 6.86114 35.0121 6.8677 34.9575 6.87754C34.5205 6.96285 34.0767 7.06786 33.7285 6.98254C33.5544 6.98254 33.1994 6.80536 32.9365 6.72004C32.8853 6.68723 32.8273 6.64457 32.7726 6.61504C33.0355 6.40176 33.353 6.27379 33.7012 6.24754ZM18.817 9.55504C19.1686 11.1038 19.7831 12.4753 20.8653 13.1775C21.4285 13.5418 22.1454 13.6927 22.8316 13.5713C16.9701 29.4394 9.1661 34.8239 4.77935 37.3013C5.03538 36.3136 5.03879 35.2931 4.9159 34.3088C4.64621 32.1727 3.84396 30.1153 3.65961 29.1638C3.65961 29.1539 3.65961 29.1474 3.65961 29.1375C3.27385 27.3328 3.72106 25.9219 4.42431 24.885C4.58817 26.1319 5.14121 27.2442 5.9537 28.035C6.61939 28.6814 7.43871 29.1539 8.3024 29.3213C9.1661 29.4886 10.1186 29.3049 10.815 28.665C11.6138 27.9595 12.0337 27.0736 12.0713 26.1713C12.1088 25.2689 11.8357 24.3928 11.4158 23.52C10.576 21.7744 9.14562 19.9566 8.00199 18.1125C6.85836 16.2685 6.02197 14.4211 6.11756 12.705C6.17218 11.7338 6.65353 10.7625 7.45578 9.76504C7.12122 10.8807 6.95053 11.8224 6.9915 12.6C7.0666 14.0405 7.78009 14.9724 8.41165 15.4875C8.42189 15.4941 8.42872 15.5072 8.43896 15.5138C9.17634 16.1274 10.238 16.321 11.2793 15.9075C11.6514 15.7599 11.9074 15.3628 12.1805 15.015C12.1805 15.3103 12.2181 15.5892 12.1532 15.9338C12.0474 16.4949 11.8869 17.1019 11.8255 17.745C11.764 18.3882 11.8323 19.1461 12.3444 19.7663C13.034 20.5964 14.0069 20.9606 14.8842 20.9738C15.7616 20.9869 16.5536 20.708 17.1237 20.16C18.1171 19.2052 18.4995 18.0994 18.4892 17.0888C18.479 16.0782 18.1957 15.1824 17.9976 14.28C17.6802 12.8297 17.5368 11.4155 18.817 9.55504Z" fill="white"/>
</svg>
