<svg width="36" height="36" viewBox="0 0 36 36" fill="none" xmlns="http://www.w3.org/2000/svg">
<path d="M26.5359 13.6716C23.8894 12.212 21.6 10.9491 21.6 9.36008V1.44008C21.6 1.04352 21.2794 0.72008 20.88 0.72008H20.4581L19.9491 0.211018C19.6678 -0.070232 19.2122 -0.070232 18.9309 0.211018L18.5794 0.562581L17.6034 0.0760183C17.325 -0.0617944 16.9903 -0.00835697 16.7709 0.211018L16.4194 0.562581L15.4434 0.0760183C15.2213 -0.036482 14.9541 -0.0224194 14.7431 0.106956C14.5294 0.239143 14.4 0.469768 14.4 0.72008V9.36008C14.4 11.3007 11.9588 12.6198 9.13219 14.1498C5.0625 16.3463 0 19.0829 0 25.2001C0 30.361 4.19906 34.5601 9.36 34.5601C9.64688 34.5601 9.93938 34.5432 10.2347 34.5151C10.2375 34.5151 10.2403 34.5123 10.2403 34.5123C10.5328 34.4841 10.8253 34.4391 11.1206 34.3829C11.3878 34.3323 11.6522 34.2676 11.9138 34.1945C10.7606 32.5773 10.08 30.4623 10.08 28.0801C10.08 24.1623 11.5172 20.7423 11.5763 20.5988C11.7338 20.2332 12.1556 20.0616 12.5213 20.2163C12.8869 20.3738 13.0584 20.7957 12.9038 21.1613C12.8897 21.1951 11.52 24.466 11.52 28.0801C11.52 32.5941 14.3044 36.0001 18 36.0001C21.6956 36.0001 24.48 32.5941 24.48 28.0801C24.48 21.4201 20.4047 17.1029 20.3625 17.0607C20.0869 16.7738 20.0953 16.3182 20.3794 16.0426C20.6663 15.767 21.1219 15.7726 21.3975 16.0595C21.5831 16.2507 25.92 20.8238 25.92 28.0801C25.92 30.4707 25.2309 32.597 24.0694 34.2169C24.8681 34.4476 25.7175 34.5601 26.64 34.5601C31.8009 34.5601 36 30.361 36 25.2001C36 18.886 30.7547 15.9948 26.5359 13.6716Z" fill="white"/>
</svg>
