<svg width="48" height="26" viewBox="0 0 48 26" fill="none" xmlns="http://www.w3.org/2000/svg">
<path d="M3.83234 9.13018L5.78074 10.8052L4.29624 10.7122L5.31683 11.3636L5.03849 11.5497L3.64677 12.2941L2.0695 12.7594H1.51281L1.0489 12.5733L0.770561 12.3872H0.584999L0.492218 12.4802L0.306656 13.1316L0.121094 14.0621L0.399437 15.1788L1.0489 15.458L3.09009 16.6677L4.57458 17.5982L5.9663 17.9704H6.80133L8.00748 17.7843L8.74973 17.8774L9.49198 18.1565H10.4198L11.3476 17.8774L12.0899 17.7843L13.0177 17.8774H14.5022L15.2444 18.2496L15.7083 20.8551L15.5228 22.0648L15.2444 23.1814V24.112L14.5022 24.6703L13.6671 25.88H17.1L17.1928 25.2286L17.4712 24.8564V24.4842V23.9259V23.4606L18.3062 20.4829L18.6773 20.2037L18.8629 20.4829L19.3268 21.1342L19.7907 22.437L20.069 23.4606L19.6979 24.205L18.9557 25.1356H22.3885L22.1102 24.4842V24.112L22.3885 23.9259V22.8092L22.1102 21.5995L21.6463 20.5759L21.368 19.5523V18.2496L21.4607 17.4121H25.4503L27.7699 17.226L32.78 16.2954L34.4501 15.9232L35.0996 16.4815L35.6562 17.226V17.6912L35.4707 18.5287L34.1717 21.8787L33.5223 23.4606L32.2233 25.1356H35.6562L35.5635 24.0189L36.1201 23.8328L36.4913 23.6467L36.7696 23.2745V22.9023V22.437V21.8787L37.7902 20.1107L38.3469 18.994L38.718 18.3426H38.9964L39.3675 18.7148L39.6458 19.3662L39.9242 19.9245V20.669L39.8314 21.7856L39.553 22.9023L39.2747 23.8328L38.8108 24.4842L38.3469 24.9495L37.7902 25.6939L41.3159 25.7869L41.4087 25.2286L41.687 24.112L41.8726 22.437L42.4293 19.9245L43.1715 18.2496L43.3571 17.6912V17.1329L43.1715 16.8538L42.8932 16.4815L42.8004 16.1093L43.0787 15.458L43.5426 14.6205L44.2849 13.5969L45.0271 12.2941L45.6766 10.8053L45.7694 8.94418L45.8622 8.47891L46.0477 8.57196V8.85112V9.31639V9.78166L46.1405 10.433L46.3261 10.8053H46.6972V10.0608L46.9755 9.40944L47.1611 8.57196L46.8828 8.10669L46.79 8.01364L46.6972 7.54837L46.79 7.2692L46.8828 6.89699L46.6972 6.52477V6.24561L46.5116 6.15256H45.9549L45.3055 6.0595L45.3983 5.59423V4.66369L45.3055 4.19842L44.9343 3.82609L44.4704 3.6401L44.0993 3.45399H43.821L43.6354 3.6401L43.0787 3.91925L42.7076 3.82609C34.3573 -0.0821806 31.7594 0.75545 28.2338 0.75532C22.7406 0.755117 12.461 5.12886 8.00748 7.36215L7.26524 7.92048L6.61577 7.54826L5.78074 6.98994L4.94571 6.61772L4.4818 6.33856L4.20346 5.68718L3.83234 5.0358L3.55399 4.75664L3.36843 4.94275L3.27565 5.68718V6.52467L3.55399 8.10658L3.83234 9.13018Z" fill="white"/>
</svg>
