<svg width="50" height="27" viewBox="0 0 50 27" fill="none" xmlns="http://www.w3.org/2000/svg">
<path d="M3.94477 9.05376L6.01578 10.8484L4.43787 10.7488L5.52268 11.4467L5.22682 11.6461L3.74753 12.4437L2.07101 12.9422H1.47929L0.986193 12.7428L0.690335 12.5434H0.493097L0.394477 12.6431L0.197239 13.341L0 14.338L0.295858 15.5344L0.986193 15.8335L3.15582 17.1296L4.73373 18.1266L6.21302 18.5254H7.10059L8.38264 18.326L9.1716 18.4257L9.96055 18.7248H10.9467L11.9329 18.4257L12.7219 18.326L13.7081 18.4257H15.286L16.075 18.8245L16.568 21.6162L16.3708 22.9123L16.075 24.1087V25.1057L15.286 25.7039L14.3984 27H18.0473L18.146 26.3021L18.4418 25.9033V25.5045V24.9063V24.4078L19.3294 21.2174L19.7239 20.9183L19.9211 21.2174L20.4142 21.9153L20.9073 23.3111L21.2032 24.4078L20.8087 25.2054L20.0197 26.2024H23.6686L23.3728 25.5045V25.1057L23.6686 24.9063V23.7099L23.3728 22.4138L22.8797 21.3171L22.5838 20.2204V18.8245L22.6824 17.9272H26.9231L29.3886 17.7278L34.714 16.7308L36.4892 16.332L37.1795 16.9302L37.7712 17.7278V18.2263L37.574 19.1236L36.1933 22.7129L35.503 24.4078L34.1223 26.2024H37.7712L37.6726 25.006L38.2643 24.8066L38.6588 24.6072L38.9546 24.2084V23.8096V23.3111V22.7129L40.0394 20.8186L40.6312 19.6221L41.0256 18.9242H41.3215L41.716 19.323L42.0118 20.021L42.3077 20.6192V21.4168L42.2091 22.6132L41.9132 23.8096L41.6174 24.8066L41.1243 25.5045L40.6312 26.003L40.0394 26.8006L43.787 26.9003L43.8856 26.3021L44.1815 25.1057L44.3787 23.3111L44.9704 20.6192L45.7594 18.8245L45.9566 18.2263V17.6281L45.7594 17.329L45.4635 16.9302L45.3649 16.5314L45.6607 15.8335L46.1538 14.9362L46.9428 13.8395L47.7318 12.4437L48.4221 10.8485L48.5207 8.85447L48.6193 8.35597L48.8166 8.45567V8.75477V9.25328V9.75178L48.9152 10.4497L49.1124 10.8485H49.5069V10.0509L49.8028 9.35298L50 8.45567L49.7041 7.95717L49.6055 7.85747L49.5069 7.35896L49.6055 7.05986L49.7041 6.66106L49.5069 6.26226V5.96315L49.3097 5.86345H48.7179L48.0276 5.76375L48.1262 5.26525V4.26824L48.0276 3.76974L47.6331 3.37081L47.14 3.17153L46.7456 2.97213H46.4497L46.2525 3.17153L45.6607 3.47063L45.2663 3.37081C36.3905 -0.816622 33.6292 0.0808388 29.8817 0.0806995C24.0429 0.0804825 13.1164 4.76663 8.38264 7.15945L7.59369 7.75765L6.90335 7.35885L6.01578 6.76065L5.1282 6.36184L4.63511 6.06274L4.33925 5.36484L3.94477 4.66693L3.64892 4.36783L3.45168 4.56723L3.35306 5.36484V6.26214L3.64892 7.95705L3.94477 9.05376Z" fill="#B1B1B1"/>
</svg>
