<svg width="72" height="38" viewBox="0 0 72 38" fill="none" xmlns="http://www.w3.org/2000/svg">
<path d="M5.68047 12.7423L8.66272 15.2681L6.39053 15.1279L7.95266 16.1102L7.52663 16.3908L5.39645 17.5134L2.98225 18.215H2.13018L1.42012 17.9343L0.994083 17.6537H0.710059L0.568047 17.794L0.284024 18.7762L0 20.1794L0.426036 21.8633L1.42012 22.2842L4.54438 24.1084L6.81657 25.5116L8.94675 26.0728H10.2249L12.071 25.7922L13.2071 25.9325L14.3432 26.3535H15.7633L17.1834 25.9325L18.3195 25.7922L19.7396 25.9325H22.0118L23.1479 26.4938L23.858 30.4227L23.574 32.2469L23.1479 33.9307V35.3339L22.0118 36.1758L20.7337 38H25.9882L26.1302 37.0178L26.5562 36.4565V35.8952V35.0533V34.3517L27.8343 29.8615L28.4024 29.4405L28.6864 29.8615L29.3965 30.8437L30.1065 32.8082L30.5325 34.3517L29.9645 35.4742L28.8284 36.8774H34.0828L33.6568 35.8952V35.3339L34.0828 35.0533V33.3695L33.6568 31.5453L32.9467 30.0018L32.5207 28.4583V26.4938L32.6627 25.2309H38.7692L42.3195 24.9503L49.9882 23.5471L52.5444 22.9858L53.5385 23.8277L54.3905 24.9503V25.6519L54.1065 26.9148L52.1183 31.9663L51.1243 34.3517L49.1361 36.8774H54.3905L54.2485 35.1936L55.1006 34.913L55.6686 34.6323L56.0947 34.0711V33.5098V32.8082V31.9663L57.6568 29.3002L58.5089 27.6164L59.0769 26.6341H59.503L60.071 27.1954L60.497 28.1776L60.9231 29.0196V30.1421L60.7811 31.8259L60.355 33.5098L59.929 34.913L59.2189 35.8952L58.5089 36.5968L57.6568 37.7194L63.0533 37.8597L63.1953 37.0178L63.6213 35.3339L63.9053 32.8082L64.7574 29.0196L65.8935 26.4938L66.1775 25.6519V24.81L65.8935 24.389L65.4675 23.8277L65.3254 23.2665L65.7515 22.2842L66.4615 21.0213L67.5976 19.4778L68.7337 17.5134L69.7278 15.2682L69.8698 12.4619L70.0118 11.7603L70.2959 11.9006V12.3215V13.0231V13.7247L70.4379 14.707L70.7219 15.2682H71.2899V14.1457L71.716 13.1634L72 11.9006L71.574 11.199L71.432 11.0587L71.2899 10.3571L71.432 9.9361L71.574 9.37482L71.2899 8.81354V8.39259L71.0059 8.25227H70.1538L69.1598 8.11195L69.3018 7.41035V6.00715L69.1598 5.30556L68.5917 4.7441L67.8817 4.46364L67.3136 4.183H66.8876L66.6036 4.46364L65.7515 4.88458L65.1834 4.7441C52.4024 -1.14932 48.426 0.113773 43.0296 0.113577C34.6217 0.113272 18.8876 6.70859 12.071 10.0763L10.9349 10.9182L9.94083 10.3569L8.66272 9.51498L7.38462 8.9537L6.67456 8.53275L6.24852 7.55051L5.68047 6.56827L5.25444 6.14732L4.97041 6.42795L4.8284 7.55051V8.81339L5.25444 11.1988L5.68047 12.7423Z" fill="#2A2A2A"/>
</svg>
