<svg width="106" height="17" viewBox="0 0 106 17" fill="none" xmlns="http://www.w3.org/2000/svg">
<path d="M30.5 0.0253906L32.4084 5.55325H38.584L33.5878 8.96966L35.4962 14.4975L30.5 11.0811L25.5038 14.4975L27.4122 8.96966L22.416 5.55325H28.5916L30.5 0.0253906Z" fill="#F7D264"/>
<path d="M53 0.0253906L54.7961 5.55325H60.6085L55.9062 8.96966L57.7023 14.4975L53 11.0811L48.2977 14.4975L50.0938 8.96966L45.3915 5.55325H51.2039L53 0.0253906Z" fill="#F7D264"/>
<path d="M75.5 0.0253906L77.4084 5.55325H83.584L78.5878 8.96966L80.4962 14.4975L75.5 11.0811L70.5038 14.4975L72.4122 8.96966L67.416 5.55325H73.5916L75.5 0.0253906Z" fill="#F7D264"/>
<path d="M98 0.0253906L99.7961 5.55325H105.608L100.906 8.96966L102.702 14.4975L98 11.0811L93.2977 14.4975L95.0938 8.96966L90.3915 5.55325H96.2039L98 0.0253906Z" fill="#F7D264"/>
<path d="M8 0.0253906L9.79611 5.55325H15.6085L10.9062 8.96966L12.7023 14.4975L8 11.0811L3.29772 14.4975L5.09383 8.96966L0.391548 5.55325H6.20389L8 0.0253906Z" fill="#F7D264"/>
</svg>
