<svg width="30" height="30" viewBox="0 0 30 30" fill="none" xmlns="http://www.w3.org/2000/svg">
<path d="M6 5L25.5 24.1509" stroke="black" stroke-width="2"/>
<circle cx="15" cy="15" r="14" stroke="black" stroke-width="2"/>
<path d="M27.5 6.47314L19.8661 9.58606C18.5296 10.1862 17.4833 10.0245 17.4777 10.0245C17.154 9.94777 16.8248 9.89845 16.4955 9.84912C15.6166 9.72033 14.7489 9.68471 14.0402 9.71759C13.6858 9.73403 13.3733 9.76143 13.1027 9.80528C12.832 9.84912 12.62 9.88475 12.3661 10.0245C11.9643 10.2382 11.5848 10.5725 11.1607 11.0329C10.8956 11.3206 10.6166 11.6577 10.3571 12.0194L10.1339 12.2167C8.90067 13.2087 7.5 14.3185 7.5 16.4257C7.5 18.5329 10.1869 22.3008 15.5134 22.3008C20.8092 22.3008 23.2143 18.3 23.2143 14.5843C23.2143 13.8636 23.4905 13.0031 24.0179 12.8086C24.6652 12.5318 25.8482 12.0578 27.1429 11.5371L27.5 11.3837V9.87104L26.5848 10.2218C25.279 10.7479 24.1016 11.2275 23.4821 11.4933C22.2377 11.9536 21.7857 13.4498 21.7857 14.5843C21.7857 17.7273 19.8521 20.8978 15.5134 20.8978C10.9626 20.8978 8.92857 17.6561 8.92857 16.4257C8.92857 16.2832 8.95647 16.1599 8.97321 16.0311C9.00112 16.3928 9.07087 16.7518 9.21875 17.1053C9.43359 17.6232 9.8577 18.0068 10.3571 18.2233C10.8566 18.4398 11.4202 18.5329 12.0312 18.5302C13.2506 18.5247 14.6791 18.1822 16.1607 17.5876C17.6618 16.9847 18.909 16.1681 19.7545 15.3077C20.5999 14.4472 21.1635 13.4745 20.8259 12.4798C20.6306 11.9098 20.2511 11.4604 19.7991 11.0987C20.0056 11.0302 20.2065 10.9562 20.4241 10.8575L27.5 7.98576V6.47314ZM14.1071 11.1206C14.7238 11.0932 15.4994 11.1179 16.2723 11.2302C17.0452 11.3426 17.8181 11.5481 18.3929 11.844C18.9676 12.14 19.3359 12.5017 19.4866 12.9401C19.5368 13.0853 19.3973 13.6608 18.7277 14.3431C18.058 15.0254 16.9615 15.7571 15.625 16.2942C14.269 16.8395 12.9715 17.1217 12.0312 17.1272C11.5597 17.1299 11.1775 17.056 10.9375 16.9518C10.6975 16.8477 10.5999 16.7353 10.5357 16.5792C10.1758 15.716 10.5134 14.513 11.1607 13.4224C11.4844 12.8771 11.875 12.3619 12.2321 11.9756C12.5893 11.5892 12.9436 11.3124 13.058 11.2521C12.9967 11.285 13.1306 11.2192 13.3259 11.1864C13.5212 11.1535 13.7974 11.1343 14.1071 11.1206ZM12.8571 13.1813C12.659 13.1813 12.5 13.3375 12.5 13.532C12.5 13.7266 12.659 13.8828 12.8571 13.8828C13.0552 13.8828 13.2143 13.7266 13.2143 13.532C13.2143 13.3375 13.0552 13.1813 12.8571 13.1813ZM12.1429 14.5843C11.9448 14.5843 11.7857 14.7405 11.7857 14.935C11.7857 15.1296 11.9448 15.2858 12.1429 15.2858C12.341 15.2858 12.5 15.1296 12.5 14.935C12.5 14.7405 12.341 14.5843 12.1429 14.5843ZM13.5714 14.5843C13.3733 14.5843 13.2143 14.7405 13.2143 14.935C13.2143 15.1296 13.3733 15.2858 13.5714 15.2858C13.7695 15.2858 13.9286 15.1296 13.9286 14.935C13.9286 14.7405 13.7695 14.5843 13.5714 14.5843Z" fill="black"/>
</svg>
