<svg width="49" height="48" viewBox="0 0 49 48" fill="none" xmlns="http://www.w3.org/2000/svg">
<path d="M7.40625 8.80054L38.6063 40.0005" stroke="white" stroke-width="2"/>
<circle cx="24.2031" cy="24" r="23" stroke="white" stroke-width="2"/>
<path d="M41.8008 11.2002L29.5865 16.2716C27.4481 17.2493 25.774 16.9859 25.7651 16.9859C25.2472 16.8609 24.7204 16.7806 24.1936 16.7002C22.7874 16.4904 21.399 16.4323 20.2651 16.4859C19.6981 16.5127 19.1981 16.5573 18.7651 16.6288C18.332 16.7002 17.9927 16.7582 17.5865 16.9859C16.9436 17.3341 16.3365 17.8788 15.6579 18.6288C15.2338 19.0975 14.7874 19.6466 14.3722 20.2359L14.0151 20.5573C12.0419 22.1734 9.80078 23.9814 9.80078 27.4145C9.80078 30.8475 14.0999 36.9859 22.6222 36.9859C31.0954 36.9859 34.9436 30.4681 34.9436 24.4145C34.9436 23.2404 35.3856 21.8386 36.2294 21.5216C37.2651 21.0707 39.1579 20.2984 41.2294 19.4502L41.8008 19.2002V16.7359L40.3365 17.3073C38.2472 18.1645 36.3633 18.9457 35.3722 19.3788C33.3811 20.1288 32.6579 22.5663 32.6579 24.4145C32.6579 29.535 29.5642 34.7002 22.6222 34.7002C15.341 34.7002 12.0865 29.4189 12.0865 27.4145C12.0865 27.1823 12.1311 26.9814 12.1579 26.7716C12.2026 27.3609 12.3142 27.9457 12.5508 28.5216C12.8945 29.3654 13.5731 29.9904 14.3722 30.3431C15.1713 30.6957 16.0731 30.8475 17.0508 30.8431C19.0017 30.8341 21.2874 30.2761 23.6579 29.3073C26.0597 28.3252 28.0552 26.9948 29.4079 25.5931C30.7606 24.1913 31.6624 22.6064 31.1222 20.9859C30.8097 20.0573 30.2026 19.3252 29.4794 18.7359C29.8097 18.6243 30.1311 18.5038 30.4794 18.3431L41.8008 13.6645V11.2002ZM20.3722 18.7716C21.3588 18.727 22.5999 18.7672 23.8365 18.9502C25.0731 19.1332 26.3097 19.4681 27.2294 19.9502C28.149 20.4323 28.7383 21.0216 28.9794 21.7359C29.0597 21.9725 28.8365 22.91 27.7651 24.0216C26.6936 25.1332 24.9392 26.3252 22.8008 27.2002C20.6311 28.0886 18.5552 28.5484 17.0508 28.5573C16.2963 28.5618 15.6847 28.4413 15.3008 28.2716C14.9169 28.102 14.7606 27.9189 14.6579 27.6645C14.082 26.2582 14.6222 24.2984 15.6579 22.5216C16.1758 21.6332 16.8008 20.7939 17.3722 20.1645C17.9436 19.535 18.5106 19.0841 18.6936 18.9859C18.5954 19.0395 18.8097 18.9323 19.1222 18.8788C19.4347 18.8252 19.8767 18.7939 20.3722 18.7716ZM18.3722 22.1288C18.0552 22.1288 17.8008 22.3832 17.8008 22.7002C17.8008 23.0172 18.0552 23.2716 18.3722 23.2716C18.6892 23.2716 18.9436 23.0172 18.9436 22.7002C18.9436 22.3832 18.6892 22.1288 18.3722 22.1288ZM17.2294 24.4145C16.9124 24.4145 16.6579 24.6689 16.6579 24.9859C16.6579 25.3029 16.9124 25.5573 17.2294 25.5573C17.5463 25.5573 17.8008 25.3029 17.8008 24.9859C17.8008 24.6689 17.5463 24.4145 17.2294 24.4145ZM19.5151 24.4145C19.1981 24.4145 18.9436 24.6689 18.9436 24.9859C18.9436 25.3029 19.1981 25.5573 19.5151 25.5573C19.832 25.5573 20.0865 25.3029 20.0865 24.9859C20.0865 24.6689 19.832 24.4145 19.5151 24.4145Z" fill="white"/>
</svg>
