<svg width="38" height="32" viewBox="0 0 38 32" fill="none" xmlns="http://www.w3.org/2000/svg">
<path d="M35.1068 1.20581L35.1511 1.02801C35.1832 0.899593 35.178 0.764725 35.1362 0.639139C35.1167 0.580382 35.0911 0.522645 35.0495 0.476726C34.8718 0.28024 34.5998 0.241535 34.2981 0.292032C33.1963 0.476417 32.2392 1.26181 31.4263 2.02805C29.0688 4.25033 24.4638 9.2425 19.8002 7.75771C15.0962 6.26008 8.94238 7.0089 6.45349 7.57051L5.8002 7.8045C5.39102 7.95105 4.93596 7.88746 4.58262 7.63436C4.5233 7.59187 4.4676 7.54454 4.41608 7.49287L4.29979 7.37625C3.93616 7.01159 3.67525 6.56405 3.94675 6.12645C4.1741 5.76002 4.52683 5.28727 4.91506 4.80027L4.93015 4.78134C5.90517 3.55834 7.24718 1.875 6.20402 0.717855C5.61831 0.0681508 4.52705 0.00840314 3.71108 0.132199C3.54927 0.156748 3.39903 0.227206 3.26823 0.325581C3.15284 0.412377 3.05537 0.520733 2.98123 0.644646L2.94034 0.712989C2.85632 0.853418 2.75023 0.97939 2.62613 1.08606L1.5602 2.00232C1.52497 2.0326 1.49615 2.06962 1.47542 2.11119L1.39 2.28252C1.3514 2.35993 1.38275 2.45398 1.46008 2.49276C1.49042 2.50797 1.51501 2.53262 1.53016 2.563L1.63556 2.77439C1.67397 2.85143 1.70067 2.93377 1.71478 3.01868L1.73777 3.15703C1.77025 3.35247 1.77025 3.55192 1.73777 3.74735L1.69349 4.01379L1.62022 4.52817C1.60707 4.62044 1.61833 4.71453 1.65285 4.80109L1.75889 5.06694C1.77576 5.10923 1.8167 5.13698 1.86223 5.13698C1.92368 5.13698 1.97349 5.08717 1.97349 5.02572V4.79623C1.97349 4.77385 1.9757 4.75153 1.98007 4.72959L2.02016 4.52858C2.05119 4.37296 2.06683 4.21466 2.06683 4.05598V3.45219V2.66869C2.06683 2.57104 2.10555 2.47737 2.1745 2.40821C2.22601 2.35657 2.29229 2.31669 2.36518 2.31938C2.71357 2.33223 2.88824 2.77024 2.96565 3.29091C3.08931 4.12256 2.75475 4.95063 2.41267 5.71869C1.90556 6.85727 1.26794 8.51087 0.896061 9.51455C0.867504 9.59162 0.845417 9.67024 0.829342 9.75084L0.790302 9.9466C0.770454 10.0461 0.772892 10.1488 0.79744 10.2473L0.808197 10.2904C0.837582 10.4083 0.9048 10.5133 0.999554 10.5893C1.19004 10.7422 1.25642 11.0008 1.1954 11.2373C0.875267 12.4778 0.891045 14.6132 0.946827 15.6201C2.06683 21.6105 11.1202 22.2657 11.3068 22.2657C11.4935 22.2657 11.7735 22.1721 12.1468 22.4529C12.5202 22.7337 12.0535 23.6697 12.5202 24.1377C12.8935 24.5121 12.6135 26.7896 12.4268 27.8816C12.3024 28.4744 11.9975 29.8659 11.7735 30.6896C11.7048 30.9421 12.0497 32 12.3114 32H12.6198C12.6731 32 12.7219 31.9699 12.7456 31.9221C12.7769 31.8594 12.8496 31.8293 12.916 31.8515L13.3288 31.9895C13.3496 31.9965 13.3713 32 13.3933 32C13.5656 32 13.6599 31.7991 13.5497 31.6665L13.0494 31.0645C12.9498 30.9446 12.9036 30.7892 12.9214 30.6344L13.1735 28.4432L13.4535 27.2264L13.7335 25.7288L13.9711 24.6169C13.9993 24.485 14.0135 24.3504 14.0135 24.2155V23.7989C14.0135 23.7754 14.0189 23.7523 14.0294 23.7314C14.0703 23.6493 14.1744 23.6222 14.2501 23.674L15.8818 24.7897C16.0361 24.8952 16.077 25.1052 15.9735 25.2608L14.7024 26.7905C14.6166 26.8938 14.5389 27.0035 14.4699 27.1188C14.3528 27.3145 14.2618 27.5247 14.1993 27.7441L14.1604 27.8809C14.1247 28.0059 14.1003 28.1339 14.0874 28.2632C14.0395 28.7441 14.1521 29.2272 14.4077 29.6373L14.9468 30.5024C15.1937 30.8119 15.7344 31.1634 15.7034 30.7687C15.7015 30.7443 15.6982 30.718 15.6935 30.6896C15.6547 30.4565 15.7651 30.3813 15.915 30.3803C16.0277 30.3796 16.1435 30.2305 16.076 30.1403C16.0699 30.1321 16.0649 30.1228 16.0613 30.1133C15.1717 27.7309 15.3828 27.5076 15.6002 27.6944L15.8802 27.9752L16.1915 28.2875C16.2144 28.3104 16.2535 28.2942 16.2535 28.2619C16.2535 28.258 16.2529 28.2541 16.2516 28.2505L16.1602 27.9752C16.129 27.8816 16.0295 27.6383 15.8802 27.4136C15.6935 27.1328 15.8802 26.9456 16.1602 26.4776C16.4402 26.0096 16.5335 25.8224 16.8135 25.448C17.0935 25.0736 17.9335 26.2904 18.5868 26.384C19.2402 26.4776 18.4002 25.6352 19.5202 26.1032C20.6402 26.5712 20.5468 25.448 20.5468 25.3544C20.5468 25.2608 20.5468 25.1672 20.7335 25.0736C20.9202 24.98 21.8535 25.5416 22.3202 25.5416C22.7868 25.5416 22.4135 24.98 22.8802 25.1672C23.3468 25.3544 23.4402 25.0736 23.5335 24.4185C23.6268 23.7633 24.0002 25.0736 24.3735 23.6697C24.7468 22.2657 22.5068 21.3297 23.0668 21.2361C23.3619 21.1868 23.6462 20.8911 23.8504 20.6058C24.0295 20.3555 24.0935 20.0463 24.0935 19.7385C24.0319 19.1824 23.8606 18.6441 23.5894 18.1547L23.5335 18.0537L22.8802 17.0241L22.5805 16.4232C22.4707 16.2028 22.4135 15.9599 22.4135 15.7137C22.4135 15.4667 22.3616 15.2229 22.2683 14.9943C21.9856 14.302 21.7182 13.5147 22.2268 14.2161C22.8242 15.0398 25.2135 15.4953 26.3335 15.6201H26.6042C26.9207 15.6201 27.2365 15.5888 27.5468 15.5265L27.9722 15.4412C27.9996 15.4357 28.0276 15.4329 28.0556 15.4329H28.3662C28.4292 15.4329 28.4802 15.3819 28.4802 15.319C28.4802 15.2744 28.4541 15.2338 28.4135 15.2153L28.3772 15.1988C28.2004 15.1182 28.271 14.8522 28.4645 14.8699C28.4749 14.8708 28.4854 14.8708 28.4958 14.8699L29.0964 14.8151C29.2081 14.805 29.2339 14.6533 29.1318 14.6068C29.0179 14.5548 29.0665 14.3832 29.1908 14.3988L29.2118 14.4014C29.2218 14.4027 29.2319 14.4026 29.2418 14.4012L29.8802 14.3097L30.2256 14.2231C30.2438 14.2185 30.2605 14.2091 30.2738 14.1957C30.3142 14.1553 30.3142 14.0898 30.2738 14.0493L30.1025 13.8775C30.0789 13.8539 30.0511 13.8349 30.0204 13.8218C29.8023 13.728 29.8111 13.4159 30.0341 13.3346L30.4402 13.1865L30.9068 12.9993L30.9192 12.9952C31.0791 12.9418 31.1868 12.7921 31.1868 12.6236V12.6042C31.1868 12.5563 31.1757 12.509 31.1543 12.4661C31.1156 12.3884 31.046 12.3305 30.9625 12.3066L30.4402 12.1569L30.0846 12.0856C30.02 12.0727 29.9735 12.0159 29.9735 11.95C29.9735 11.9039 29.9965 11.8607 30.0349 11.8351L30.5335 11.5017C31.1538 11.1907 31.8064 10.9486 32.4796 10.7798L33.3335 10.5657L34.681 10.1153C34.7146 10.1041 34.7424 10.0799 34.7582 10.0482L34.761 10.0427C34.7957 9.97288 34.7608 9.88847 34.6868 9.86375C34.6129 9.83903 34.5779 9.75462 34.6127 9.68484L34.6154 9.67931C34.6313 9.64758 34.6591 9.62343 34.6927 9.61219L34.8581 9.55689C34.8989 9.54325 34.936 9.52029 34.9663 9.48983C35.0503 9.40566 35.0711 9.27729 35.0181 9.17091L35.0135 9.16175C34.9087 9.0041 34.945 8.79207 35.0963 8.67828L35.1847 8.61182C35.195 8.60405 35.2047 8.59557 35.2139 8.58642C35.2649 8.53528 35.2935 8.466 35.2935 8.39377V8.38729C35.2935 8.34262 35.3039 8.29855 35.3238 8.25856L35.3621 8.18179C35.3785 8.14892 35.4 8.1189 35.426 8.09289L35.5735 7.94496C35.6251 7.89323 35.6251 7.8095 35.5735 7.75776L35.5377 7.72189C35.4543 7.63825 35.4543 7.50288 35.5377 7.41924C35.5612 7.39565 35.5899 7.37787 35.6215 7.36731L35.8535 7.28977L36.3202 7.10257L36.6136 6.95543C36.6667 6.92878 36.7174 6.89739 36.7649 6.86164L36.9282 6.73882C37.0175 6.67168 37.0789 6.57402 37.1007 6.46448L37.1028 6.45424C37.1375 6.28012 37.0635 6.10192 36.9159 6.00324C36.8922 5.9874 36.87 5.96921 36.8499 5.94902L36.7914 5.89041C36.6801 5.7788 36.6629 5.60423 36.7501 5.47297C36.7744 5.43654 36.8055 5.40526 36.8419 5.38094L36.9552 5.30517C37.0276 5.25683 37.0817 5.18577 37.1092 5.10322L37.1236 5.05963C37.147 4.98928 37.1416 4.91253 37.1085 4.84619C37.0814 4.79192 37.0375 4.74789 36.9833 4.72071L36.574 4.51546C36.5298 4.49332 36.4811 4.48178 36.4317 4.48178H36.1747C35.987 4.48178 35.8929 4.25504 36.0254 4.12217C36.0352 4.11234 36.046 4.1035 36.0575 4.09578L36.2622 3.95894C36.3007 3.93317 36.3366 3.90365 36.3694 3.87082L36.3739 3.86628C36.4609 3.77906 36.5226 3.66987 36.5524 3.55035L36.5558 3.53657C36.5848 3.42032 36.5801 3.29823 36.5423 3.18454C36.5188 3.11393 36.4831 3.04803 36.4367 2.98986L36.2538 2.76062C36.178 2.66555 36.1507 2.54059 36.1802 2.4226C36.2096 2.30461 36.1823 2.17964 36.1065 2.08458L35.8535 1.7674C35.7929 1.70665 35.7142 1.66722 35.6293 1.65506L35.1528 1.58679C35.123 1.58252 35.0953 1.56866 35.074 1.54732C35.0369 1.5101 35.024 1.45512 35.0405 1.40524L35.1068 1.20581Z" fill="white"/>
</svg>
