<svg width="34" height="30" viewBox="0 0 34 30" fill="none" xmlns="http://www.w3.org/2000/svg">
<path d="M32.0821 1.05809L32.1235 0.890798C32.1534 0.7702 32.1486 0.643612 32.1096 0.525638C32.0913 0.470325 32.0673 0.415942 32.0283 0.37264C31.8632 0.189121 31.611 0.152216 31.331 0.198545C30.2976 0.369547 29.4021 1.11189 28.6422 1.8328C26.4395 3.92237 22.1394 8.61094 17.7846 7.21589C13.3908 5.80834 7.64273 6.51212 5.31795 7.03995L4.709 7.25941C4.32626 7.39734 3.90012 7.33758 3.57008 7.0997C3.51491 7.05994 3.46312 7.01568 3.41525 6.96737L3.30648 6.85762C2.9667 6.51475 2.72267 6.09456 2.97594 5.68364C3.18901 5.33794 3.52027 4.8914 3.88468 4.43164L3.90665 4.40392C4.81437 3.25886 6.05294 1.69645 5.09195 0.607382C4.54683 -0.0103861 3.52268 -0.0677422 2.75735 0.048906C2.60556 0.0720401 2.46473 0.138465 2.3423 0.231118C2.23478 0.312489 2.14405 0.413931 2.07513 0.52983L2.03641 0.594956C1.95795 0.726911 1.85875 0.845376 1.74264 0.945804L0.747547 1.80647C0.71447 1.83508 0.687435 1.86999 0.668018 1.90918L0.58799 2.07068C0.552063 2.14319 0.581367 2.2311 0.65361 2.26755C0.682056 2.2819 0.705082 2.30509 0.719231 2.33364L0.817863 2.5327C0.853619 2.60486 0.878464 2.68192 0.89159 2.76138L0.913181 2.8921C0.943504 3.07569 0.943504 3.26301 0.913181 3.4466L0.871796 3.69717L0.803226 4.18149C0.791027 4.26765 0.801476 4.35549 0.833542 4.43638L0.932983 4.68723C0.948669 4.72681 0.986931 4.7528 1.0295 4.7528C1.08685 4.7528 1.13333 4.70631 1.13333 4.64897V4.43237C1.13333 4.41146 1.13538 4.39059 1.13945 4.37007L1.17692 4.181C1.20591 4.03473 1.22051 3.88598 1.22051 3.73687V3.16935V2.43207C1.22051 2.34084 1.25654 2.2533 1.32076 2.1885C1.36907 2.13975 1.43139 2.10203 1.49998 2.10471C1.82626 2.11747 1.98921 2.53233 2.061 3.02403C2.17457 3.80198 1.86391 4.57617 1.54554 5.29502C1.07158 6.36521 0.474846 7.92228 0.126991 8.86693C0.100285 8.93945 0.0796318 9.0134 0.0646057 9.08921L0.0280914 9.27344C0.00959015 9.36679 0.0118637 9.46306 0.0347481 9.55542L0.0449333 9.59654C0.0723419 9.70717 0.135181 9.8058 0.223869 9.8774C0.401833 10.0211 0.463829 10.2632 0.406929 10.4847C0.107506 11.6504 0.122231 13.6586 0.174358 14.6054C1.22051 20.2354 9.67692 20.8512 9.85128 20.8512C10.0256 20.8512 10.2872 20.7632 10.6359 21.0271C10.9846 21.291 10.5487 22.1707 10.9846 22.6106C11.3333 22.9625 11.0718 25.103 10.8974 26.1293C10.7812 26.6865 10.4964 27.9943 10.2872 28.7684C10.2229 29.0062 10.5482 30 10.7946 30H11.0774C11.1274 30 11.173 29.9717 11.1952 29.9269C11.2244 29.868 11.2926 29.8397 11.3549 29.8606L11.7397 29.9901C11.7592 29.9966 11.7798 30 11.8004 30C11.9617 30 12.0501 29.8123 11.9474 29.688L11.4788 29.1205C11.3859 29.008 11.3427 28.8624 11.3593 28.7174L11.5949 26.6572L11.8564 25.5136L12.1179 24.1061L12.3399 23.061C12.3662 22.937 12.3795 22.8106 12.3795 22.6838V22.2918C12.3795 22.27 12.3845 22.2485 12.3942 22.229C12.4324 22.1518 12.5302 22.1265 12.6011 22.1753L14.124 23.223C14.2687 23.3226 14.3071 23.5197 14.2103 23.6662L13.0233 25.1035C12.9429 25.2008 12.8702 25.3041 12.8057 25.4126C12.6964 25.5964 12.6115 25.7937 12.5533 25.9995L12.5167 26.1286C12.4834 26.2462 12.4606 26.3664 12.4486 26.488C12.4038 26.94 12.5091 27.3942 12.7483 27.7804L13.2513 28.5925C13.4819 28.8834 13.9871 29.2122 13.9579 28.8421C13.9561 28.8194 13.9531 28.7949 13.9487 28.7684C13.9127 28.5501 14.0149 28.4792 14.1542 28.4778C14.2599 28.4767 14.3691 28.337 14.306 28.2521C14.3003 28.2445 14.2956 28.2357 14.2923 28.2268C13.4613 25.9877 13.6585 25.7778 13.8615 25.9534L14.1231 26.2173L14.4137 26.5106C14.4351 26.5321 14.4718 26.517 14.4718 26.4867C14.4718 26.4831 14.4712 26.4795 14.4701 26.476L14.3846 26.2173C14.3556 26.1293 14.2626 25.9006 14.1231 25.6895C13.9487 25.4256 14.1231 25.2497 14.3846 24.8098C14.6462 24.37 14.7333 24.194 14.9949 23.8421C15.2564 23.4903 16.041 24.6339 16.6513 24.7218C17.2615 24.8098 16.4769 24.0181 17.5231 24.4579C18.5692 24.8978 18.4821 23.8421 18.4821 23.7542C18.4821 23.6662 18.4821 23.5782 18.6564 23.4903C18.8308 23.4023 19.7026 23.9301 20.1385 23.9301C20.5744 23.9301 20.2256 23.4023 20.6615 23.5782C21.0974 23.7542 21.1846 23.4903 21.2718 22.8745C21.359 22.2587 21.7077 23.4903 22.0564 22.1707C22.4051 20.8512 20.3128 19.9715 20.8359 19.8835C21.1113 19.8372 21.3767 19.5597 21.5673 19.2918C21.7351 19.056 21.7949 18.7653 21.7949 18.476C21.7373 17.9533 21.5771 17.4472 21.3235 16.9865L21.2718 16.8926L20.6615 15.9249L20.3819 15.3605C20.2791 15.1531 20.2256 14.9248 20.2256 14.6933C20.2256 14.4612 20.1772 14.232 20.0899 14.0169C19.8259 13.3663 19.5762 12.6267 20.0513 13.2858C20.6092 14.06 22.841 14.4881 23.8872 14.6054H24.1399C24.4357 14.6054 24.7306 14.5759 25.0205 14.5174L25.4176 14.4373C25.4434 14.4321 25.4697 14.4294 25.496 14.4294H25.7851C25.8443 14.4294 25.8923 14.3814 25.8923 14.3222C25.8923 14.2803 25.8679 14.2423 25.8298 14.2248L25.7951 14.2089C25.6295 14.1329 25.696 13.8836 25.8775 13.9003C25.8874 13.9012 25.8973 13.9012 25.9071 13.9003L26.4677 13.8488C26.5725 13.8392 26.5968 13.6969 26.5011 13.653C26.3942 13.604 26.4401 13.4429 26.5568 13.4576L26.5756 13.46C26.585 13.4612 26.5945 13.4611 26.6039 13.4597L27.2 13.3738L27.5224 13.2925C27.5396 13.2881 27.5553 13.2792 27.5678 13.2665C27.6055 13.2285 27.6055 13.1672 27.5678 13.1292L27.4079 12.9678C27.3857 12.9454 27.3595 12.9275 27.3306 12.915C27.1263 12.8267 27.1346 12.5341 27.3436 12.4574L27.7231 12.3182L28.159 12.1422L28.169 12.1389C28.3193 12.0883 28.4205 11.9474 28.4205 11.7889V11.7705C28.4205 11.7257 28.4102 11.6815 28.3903 11.6413C28.354 11.5681 28.2886 11.5135 28.2101 11.4909L27.7231 11.3505L27.3917 11.2836C27.3309 11.2714 27.2872 11.2179 27.2872 11.1559C27.2872 11.1126 27.3088 11.0721 27.3447 11.0479L27.8103 10.7347C28.3897 10.4424 28.9996 10.2148 29.6289 10.056L30.4256 9.85502L31.6839 9.43181C31.7155 9.42116 31.7417 9.39835 31.7565 9.36841L31.7593 9.36286C31.7917 9.29747 31.7589 9.21852 31.6897 9.19525C31.6206 9.17199 31.5878 9.09303 31.6202 9.02764L31.623 9.02209C31.6378 8.99215 31.6639 8.96934 31.6956 8.95869L31.8492 8.90703C31.8877 8.89409 31.9226 8.87235 31.9511 8.84354C32.0294 8.76451 32.0489 8.64444 31.9995 8.54475L31.9949 8.53548C31.8968 8.38708 31.9309 8.18803 32.0727 8.0807L32.1547 8.01868C32.1644 8.01135 32.1735 8.00333 32.1821 7.9947C32.2297 7.94665 32.2564 7.88174 32.2564 7.8141V7.80756C32.2564 7.76559 32.2661 7.72419 32.2847 7.68659L32.3204 7.61455C32.3358 7.5836 32.356 7.55531 32.3803 7.53078L32.5179 7.39188C32.5662 7.34317 32.5662 7.26465 32.5179 7.21594L32.4843 7.18198C32.4064 7.10336 32.4064 6.97664 32.4843 6.89802C32.5064 6.87569 32.5335 6.85884 32.5633 6.84882L32.7795 6.77609L33.2154 6.60016L33.4891 6.46207C33.539 6.43689 33.5865 6.40724 33.6311 6.3735L33.7827 6.25876C33.8665 6.19534 33.9241 6.10336 33.9445 6.00028L33.9467 5.98955C33.979 5.82655 33.9099 5.65987 33.772 5.56712C33.7497 5.55211 33.7289 5.53491 33.71 5.51581L33.6556 5.46091C33.5515 5.35587 33.5353 5.19222 33.6168 5.06883C33.6396 5.03442 33.6689 5.00486 33.7031 4.98184L33.808 4.9113C33.8759 4.86558 33.9268 4.79856 33.9525 4.72078L33.966 4.67976C33.9878 4.61383 33.9827 4.54197 33.9519 4.47976C33.9265 4.42859 33.8853 4.38702 33.8343 4.36129L33.453 4.16891C33.4114 4.14794 33.3655 4.13701 33.3189 4.13701H33.0809C32.9046 4.13701 32.8159 3.92429 32.94 3.79911C32.9492 3.78982 32.9593 3.78146 32.9702 3.77416L33.161 3.64578C33.1972 3.62145 33.2308 3.5936 33.2615 3.56265L33.2651 3.55906C33.3467 3.47673 33.4045 3.37385 33.4323 3.26134L33.4355 3.24843C33.4626 3.13929 33.4582 3.02473 33.4229 2.91797C33.401 2.85149 33.3675 2.7894 33.324 2.73454L33.1536 2.51966C33.0826 2.43008 33.0571 2.31265 33.0846 2.20169C33.1121 2.09073 33.0866 1.97329 33.0156 1.88371L32.7795 1.5859C32.7229 1.52882 32.6493 1.49173 32.5697 1.48026L32.1254 1.41621C32.0973 1.41216 32.0712 1.39905 32.0512 1.37887C32.0167 1.34397 32.0046 1.29262 32.02 1.24596L32.0821 1.05809Z" fill="#B1B1B1"/>
</svg>
