<svg width="54" height="47" viewBox="0 0 54 47" fill="none" xmlns="http://www.w3.org/2000/svg">
<path d="M50.9538 1.65767L51.0195 1.39622C51.067 1.20697 51.0594 1.00806 50.9974 0.823034C50.9685 0.736692 50.9305 0.65191 50.8692 0.584571C50.6039 0.293068 50.1968 0.2371 49.7456 0.31362C48.1194 0.589397 46.7023 1.73791 45.4977 2.86466C42.0014 6.13496 35.1674 13.492 28.2462 11.3049C21.2677 9.09974 12.1385 10.2023 8.44615 11.0293L7.47456 11.3746C6.86855 11.5901 6.19556 11.4964 5.67137 11.1238C5.58292 11.0609 5.4998 10.9908 5.42287 10.9142L5.25064 10.7428C4.71144 10.2061 4.325 9.54628 4.72843 8.90127C5.06433 8.36421 5.58417 7.67238 6.15668 6.95922L6.16282 6.95156C7.61501 5.14263 9.636 2.62513 8.06238 0.924281C7.1898 -0.018855 5.58023 -0.104562 4.37585 0.0771415C4.13703 0.113172 3.9151 0.21653 3.72156 0.361011C3.54984 0.489198 3.40464 0.649499 3.29402 0.833018L3.23439 0.931947C3.10971 1.13877 2.95249 1.32412 2.76877 1.48086L1.18637 2.83091C1.13444 2.87521 1.0919 2.92946 1.06126 2.99046L0.934998 3.24181C0.877495 3.35629 0.923965 3.4957 1.03865 3.55277C1.08347 3.57507 1.11983 3.61131 1.1423 3.65604L1.2983 3.96659C1.35552 4.08049 1.39532 4.20233 1.41637 4.32805L1.45025 4.53042C1.49847 4.81835 1.49847 5.11229 1.45025 5.40021L1.38461 5.79223L1.27615 6.54794C1.2565 6.68486 1.27331 6.82454 1.32489 6.95289L1.48143 7.34243C1.50659 7.40503 1.56728 7.44605 1.63476 7.44605C1.72602 7.44605 1.8 7.37207 1.8 7.28081V6.94465C1.8 6.91148 1.80329 6.8784 1.80983 6.84588L1.86923 6.55023C1.91527 6.3211 1.93846 6.08796 1.93846 5.85425V4.96532V3.81342C1.93846 3.66856 1.99617 3.52968 2.09884 3.4275C2.17484 3.35185 2.27242 3.29361 2.37959 3.29728C2.89472 3.31491 3.15422 3.95376 3.27008 4.71588C3.4573 5.94745 2.9574 7.17447 2.44768 8.31114C1.69596 9.98743 0.752262 12.4167 0.201519 13.892C0.159218 14.0053 0.126488 14.1209 0.102661 14.2395L0.044838 14.5273C0.015316 14.6742 0.01894 14.8259 0.0554466 14.9712L0.0711403 15.0337C0.114803 15.2075 0.214417 15.3622 0.354633 15.4739C0.637169 15.6988 0.735661 16.0816 0.644936 16.4312C0.170788 18.2582 0.19421 21.3999 0.27692 22.8817C1.93846 31.7021 15.3692 32.6669 15.6462 32.6669C15.9231 32.6669 16.3385 32.529 16.8923 32.9425C17.4462 33.356 16.7538 34.7341 17.4462 35.4232C18 35.9745 17.5846 39.3281 17.3077 40.936C17.1231 41.8088 16.6708 43.8577 16.3385 45.0705C16.2368 45.4414 16.7423 47 17.1269 47H17.5946C17.6734 47 17.7454 46.9556 17.7807 46.8852C17.8271 46.7929 17.9343 46.7485 18.0324 46.7811L18.6462 46.9847C18.6767 46.9948 18.7087 47 18.7409 47C18.9961 47 19.1352 46.7021 18.9714 46.5064L18.2316 45.6228C18.0837 45.4462 18.015 45.2166 18.0415 44.9878L18.4154 41.7629L18.8308 39.9712L19.2462 37.7662L19.5986 36.1289C19.6404 35.9346 19.6615 35.7365 19.6615 35.5378V34.9251C19.6615 34.8901 19.6697 34.8557 19.6854 34.8245C19.7461 34.7036 19.8993 34.6637 20.0113 34.7397L22.4344 36.3842C22.6622 36.5388 22.7224 36.8483 22.5692 37.0771L20.6831 39.33C20.5561 39.4816 20.441 39.6429 20.3389 39.8123C20.165 40.1008 20.0298 40.4109 19.9369 40.7347L19.8794 40.935C19.8266 41.119 19.7904 41.3074 19.7712 41.4979C19.7001 42.2056 19.8669 42.9168 20.2451 43.5191L21.0462 44.7949C21.4125 45.2506 22.2142 45.771 22.1686 45.1881C22.1658 45.1519 22.1609 45.1128 22.1538 45.0705C22.0961 44.7258 22.2615 44.6156 22.4854 44.6151C22.6516 44.6148 22.8213 44.3944 22.7213 44.2617C22.7123 44.2497 22.7048 44.2359 22.6995 44.2219C21.3798 40.7141 21.693 40.3853 22.0154 40.6603L22.4308 41.0738L22.8931 41.534C22.927 41.5677 22.9846 41.5437 22.9846 41.496C22.9846 41.4902 22.9837 41.4845 22.9818 41.479L22.8462 41.0738C22.8 40.936 22.6523 40.5777 22.4308 40.2469C22.1538 39.8334 22.4308 39.5578 22.8462 38.8687C23.2615 38.1796 23.4 37.904 23.8154 37.3527C24.2308 36.8014 25.4769 38.5931 26.4462 38.7309C27.4154 38.8687 26.1692 37.6283 27.8308 38.3174C29.4923 39.0065 29.3538 37.3527 29.3538 37.2149C29.3538 37.0771 29.3538 36.9392 29.6308 36.8014C29.9077 36.6636 31.2923 37.4905 31.9846 37.4905C32.6769 37.4905 32.1231 36.6636 32.8154 36.9392C33.5077 37.2149 33.6462 36.8014 33.7846 35.8367C33.9231 34.872 34.4769 36.8014 35.0308 34.7341C35.5846 32.6669 32.2615 31.2887 33.0923 31.1509C33.5305 31.0782 33.9526 30.6421 34.2555 30.2217C34.5204 29.854 34.6154 29.3989 34.6154 28.9458C34.524 28.1271 34.2701 27.3349 33.8686 26.6156L33.7846 26.465L32.8154 24.949L32.3705 24.0634C32.2078 23.7395 32.1231 23.3821 32.1231 23.0196C32.1231 22.656 32.0462 22.2971 31.9079 21.9609C31.4884 20.9414 31.0914 19.7815 31.8462 20.8145C32.7323 22.0273 36.2769 22.698 37.9385 22.8817H38.3403C38.8097 22.8817 39.278 22.8356 39.7385 22.7439L40.3698 22.6182C40.4104 22.6102 40.4516 22.6061 40.4929 22.6061H40.9555C41.0481 22.6061 41.1231 22.5311 41.1231 22.4386C41.1231 22.3727 41.0846 22.313 41.0246 22.2859L40.9724 22.2623C40.7111 22.1441 40.8146 21.7513 41.1002 21.7771C41.1154 21.7785 41.1307 21.7785 41.146 21.7771L42.0377 21.6964C42.2024 21.6815 42.2402 21.4577 42.0896 21.3896C41.9215 21.3135 41.9927 21.0605 42.1758 21.0833L42.2088 21.0874C42.2234 21.0892 42.2381 21.0891 42.2527 21.087L43.2 20.9523L43.713 20.8246C43.7397 20.818 43.7642 20.8042 43.7837 20.7847C43.8436 20.7251 43.8436 20.6282 43.7837 20.5686L43.5295 20.3155C43.4948 20.2809 43.4538 20.2533 43.4087 20.2341C43.0865 20.0966 43.0994 19.6356 43.4288 19.5163L44.0308 19.2985L44.7231 19.0228L44.7446 19.0157C44.9797 18.9377 45.1385 18.7178 45.1385 18.47V18.4418C45.1385 18.3707 45.1218 18.3007 45.0899 18.2372C45.0326 18.123 44.9301 18.0382 44.8073 18.0033L44.0308 17.7824L43.5019 17.6772C43.4069 17.6583 43.3385 17.5749 43.3385 17.478C43.3385 17.4099 43.3726 17.3464 43.4293 17.3087L44.1692 16.8177C45.0896 16.3597 46.0571 16.0034 47.0547 15.7552L48.3231 15.4395L50.3228 14.776C50.3722 14.7596 50.4131 14.7243 50.4365 14.6778L50.4402 14.6703C50.492 14.5673 50.4403 14.4422 50.3308 14.4059C50.2213 14.3696 50.1695 14.2445 50.2213 14.1414L50.225 14.134C50.2484 14.0875 50.2893 14.0521 50.3387 14.0357L50.5859 13.9537C50.6458 13.9339 50.7002 13.9004 50.7449 13.8559C50.8696 13.7318 50.9005 13.5416 50.8215 13.3845L50.8154 13.3723C50.6602 13.1406 50.7138 12.8279 50.9372 12.6611L51.0695 12.5624C51.0847 12.551 51.0991 12.5386 51.1125 12.5252C51.1882 12.4499 51.2308 12.3475 51.2308 12.2407V12.232C51.2308 12.1662 51.2462 12.1012 51.2757 12.0424L51.3326 11.9292C51.3569 11.8809 51.3888 11.8368 51.4271 11.7987L51.6462 11.5806C51.7225 11.5046 51.7225 11.381 51.6462 11.305L51.5936 11.2526C51.4698 11.1295 51.4698 10.9292 51.5936 10.8061C51.6281 10.7716 51.6703 10.7457 51.7166 10.7303L52.0615 10.6159L52.7538 10.3402L53.1899 10.1232C53.2683 10.0842 53.343 10.0383 53.4131 9.98592L53.6571 9.80376C53.7887 9.7055 53.8794 9.56208 53.9118 9.40103L53.9144 9.38808C53.9662 9.13044 53.8561 8.86655 53.6371 8.72125C53.6023 8.69814 53.5697 8.67157 53.5401 8.64208L53.453 8.55542C53.2882 8.39136 53.2626 8.13353 53.392 7.9403C53.4278 7.88697 53.4737 7.84124 53.5272 7.80575L53.6972 7.69289C53.8037 7.62224 53.8836 7.51807 53.9242 7.3969L53.9456 7.33282C53.9804 7.22887 53.9723 7.11533 53.9231 7.01737C53.8831 6.93779 53.8184 6.87333 53.7387 6.83365L53.1295 6.53044C53.0646 6.49814 52.993 6.48132 52.9205 6.48132H52.5354C52.2589 6.48132 52.1208 6.14673 52.3167 5.95168C52.3312 5.93729 52.347 5.92437 52.364 5.91309L52.6683 5.71116C52.7252 5.67342 52.7782 5.63016 52.8266 5.582L52.8346 5.57402C52.963 5.44627 53.0541 5.28597 53.0982 5.11034L53.1033 5.08997C53.1464 4.91858 53.1394 4.73845 53.0833 4.57088C53.0486 4.46714 52.9957 4.37039 52.9272 4.28512L52.655 3.94647C52.5428 3.80694 52.5025 3.62293 52.5462 3.44931C52.5898 3.2757 52.5495 3.09168 52.4373 2.95216L52.0615 2.48458C51.9716 2.39511 51.8552 2.33712 51.7297 2.31926L51.0213 2.21854C50.9775 2.21231 50.9369 2.19208 50.9056 2.16087C50.8503 2.1059 50.831 2.02438 50.8558 1.95049L50.9538 1.65767Z" fill="#2A2A2A"/>
</svg>
